<?xml version="1.0" standalone="no"?>
<!DOCTYPE svg PUBLIC "-//W3C//DTD SVG 20010904//EN"
 "http://www.w3.org/TR/2001/REC-SVG-20010904/DTD/svg10.dtd">
<svg version="1.0" xmlns="http://www.w3.org/2000/svg"
 width="1400.000000pt" height="788.000000pt" viewBox="0 0 1400.000000 788.000000"
 preserveAspectRatio="xMidYMid meet">

<g transform="translate(0.000000,788.000000) scale(0.100000,-0.100000)"
fill="#000000" stroke="none">
<path d="M2775 7629 c-4 -6 -13 -8 -20 -6 -6 3 -20 -4 -29 -14 -12 -15 -14
-24 -6 -39 8 -15 8 -20 -1 -20 -7 0 -9 -11 -5 -34 8 -42 -9 -51 -43 -25 -13
11 -33 19 -45 19 -12 0 -31 7 -42 15 -19 15 -54 20 -54 9 0 -4 27 -31 60 -61
33 -30 60 -61 60 -67 0 -7 9 -21 20 -31 19 -17 19 -19 4 -37 -11 -11 -31 -18
-53 -18 -24 0 -42 -7 -54 -20 -9 -11 -25 -20 -34 -20 -32 -1 12 -27 57 -34 22
-3 40 -11 40 -16 0 -6 7 -10 16 -10 20 0 39 -20 48 -48 5 -14 3 -22 -4 -22
-15 0 -90 -161 -90 -194 0 -33 18 -34 30 -1 10 28 30 34 30 10 0 -21 -27 -85
-44 -105 -8 -8 -17 -25 -21 -38 -6 -21 -4 -22 19 -16 22 5 26 3 26 -17 0 -44
12 -67 36 -73 16 -4 25 -16 29 -39 5 -23 15 -36 34 -45 57 -25 70 -135 48
-383 -9 -96 -21 -248 -27 -339 -37 -588 -68 -850 -102 -871 -13 -8 -167 -3
-176 6 -13 13 15 19 86 17 52 -1 71 1 57 8 -19 8 -19 9 3 9 12 1 22 6 22 11 0
6 -39 10 -98 10 -141 0 -251 -11 -249 -24 1 -6 -8 -10 -20 -8 -12 2 -24 -2
-28 -8 -3 -6 3 -10 14 -10 12 0 21 -4 21 -10 0 -5 -7 -10 -15 -10 -8 0 -15 -9
-15 -20 0 -28 -11 -25 -45 10 -16 17 -35 30 -42 30 -8 0 -12 4 -9 9 4 5 -9 25
-28 44 -19 20 -37 45 -41 57 -8 25 -37 20 -72 -13 -24 -21 -44 -17 -26 5 6 7
13 29 17 49 7 41 -7 54 -50 43 -24 -6 -33 -37 -14 -49 19 -12 10 -35 -20 -50
-36 -19 -40 -19 -40 0 0 8 -7 15 -16 15 -12 0 -15 -6 -11 -23 7 -27 -9 -61
-17 -37 -2 8 -4 24 -4 35 4 61 -3 125 -13 125 -7 0 -9 -10 -5 -24 7 -30 -7
-42 -24 -21 -7 8 -28 15 -47 15 -23 0 -33 4 -30 13 5 15 -21 36 -45 37 -23 0
-32 -18 -30 -55 2 -27 -2 -32 -32 -43 -45 -17 -87 -91 -68 -122 16 -26 15 -31
-3 -24 -15 6 -19 -4 -16 -38 3 -27 -87 -25 -117 2 -12 11 -27 20 -35 20 -12 0
-37 59 -37 89 0 19 49 12 62 -9 7 -11 17 -20 21 -20 5 0 21 -9 35 -20 24 -20
26 -20 36 -3 13 23 18 54 11 71 -5 13 -8 13 -23 0 -18 -16 -62 -33 -62 -24 0
3 10 21 22 42 21 36 21 37 3 50 -10 8 -23 14 -28 14 -14 0 -127 -112 -127
-126 0 -7 -8 -10 -20 -7 -11 3 -17 9 -14 14 3 5 2 9 -3 9 -25 1 -33 17 -22 48
6 18 15 32 20 32 5 0 9 4 9 8 0 11 -45 32 -68 32 -22 0 -51 -33 -49 -56 2 -13
-10 -22 -38 -32 -54 -18 -67 -33 -75 -87 -5 -35 -4 -48 6 -52 21 -8 7 -22 -16
-16 -11 3 -20 12 -20 20 0 10 -6 13 -16 9 -9 -3 -18 -6 -20 -6 -2 0 -4 -7 -4
-16 0 -14 -2 -14 -16 1 -9 9 -16 28 -16 43 0 15 -6 38 -13 52 -8 14 -16 33
-19 43 -3 9 -15 17 -27 17 -20 0 -21 3 -15 43 4 23 14 85 22 137 31 206 35
220 55 220 10 0 19 -4 19 -10 0 -19 18 -10 23 11 5 17 11 20 31 15 30 -7 32
-5 40 67 6 46 5 57 -7 57 -8 0 -17 12 -20 26 -4 21 -1 25 14 21 10 -3 18 -2
17 2 -2 20 4 31 18 31 11 0 14 5 10 16 -14 37 -18 64 -8 64 6 0 18 3 27 7 16
6 16 5 1 -20 -14 -20 -15 -30 -6 -46 9 -18 13 -19 30 -8 11 6 20 17 20 23 0 6
10 18 22 26 20 13 21 17 9 32 -9 10 -10 16 -2 16 6 0 11 11 11 25 0 19 -5 25
-21 25 -14 0 -19 5 -16 14 3 8 -3 26 -14 40 -16 20 -26 24 -49 19 -36 -7 -40
11 -8 28 40 22 53 39 41 58 -13 21 1 51 22 51 22 0 19 12 -17 66 -33 49 -72
70 -96 51 -8 -6 -17 -5 -28 4 -13 11 -17 10 -25 -4 -7 -12 -23 -17 -54 -17
-38 0 -45 -3 -45 -20 0 -12 -12 -25 -34 -35 -19 -9 -37 -23 -40 -31 -7 -19
-35 -18 -42 1 -4 8 -12 15 -18 15 -7 0 -31 9 -54 20 -22 11 -48 20 -56 20 -24
0 -27 16 -6 40 26 29 25 34 -5 54 -23 15 -25 15 -44 -6 -19 -20 -22 -20 -39
-5 -26 24 -40 21 -35 -8 5 -24 4 -24 -43 -19 -41 5 -55 2 -84 -18 -23 -15 -36
-33 -38 -51 -2 -15 -7 -27 -11 -27 -4 0 -15 -6 -25 -13 -23 -17 -11 -47 19
-47 13 0 26 -7 29 -16 7 -19 8 -17 -21 -33 -13 -6 -23 -17 -23 -24 0 -16 40
-42 65 -42 13 0 22 -10 29 -32 5 -18 15 -33 23 -33 28 0 83 -62 84 -94 1 -30
1 -30 13 9 7 24 32 62 64 95 28 30 52 58 52 62 0 4 -10 16 -22 27 l-21 20 29
11 c16 6 34 17 40 26 17 21 144 29 169 10 20 -15 20 -15 -1 -16 -24 0 -61 -36
-66 -65 -3 -18 2 -20 45 -17 26 2 47 1 47 -1 0 -9 -69 -77 -79 -77 -6 0 -11
-9 -11 -19 0 -11 -4 -21 -9 -23 -5 -1 -7 -15 -4 -30 3 -17 10 -25 19 -21 7 2
19 1 26 -3 7 -5 23 -7 34 -6 18 3 23 -5 33 -45 15 -59 15 -57 -3 -61 -11 -2
-16 4 -16 20 0 32 -49 78 -83 78 -44 0 -67 -66 -25 -72 17 -2 25 -13 31 -40 5
-22 15 -38 23 -38 8 0 14 5 14 10 0 6 7 10 15 10 12 0 35 -55 35 -86 0 -6 9
-23 20 -37 20 -26 20 -26 1 -119 -11 -51 -23 -115 -28 -143 -7 -46 -11 -50
-38 -53 -38 -5 -55 -19 -55 -47 0 -25 -29 -55 -52 -55 -29 0 -74 -75 -65 -109
3 -12 1 -21 -4 -21 -5 0 -9 6 -9 13 0 17 -58 67 -79 67 -9 0 -23 5 -31 10 -13
8 -12 10 4 10 15 0 16 3 6 15 -18 21 -63 19 -90 -5 l-24 -21 -11 28 c-7 18 -8
42 -3 68 4 22 26 144 48 270 22 127 44 246 50 265 13 44 13 82 1 60 -9 -15
-111 -509 -116 -561 -4 -33 -13 -68 -27 -96 -11 -23 -11 -23 -30 8 -10 16 -34
37 -53 44 -34 15 -34 15 -18 45 14 29 14 33 -3 51 -20 22 -66 25 -82 6 -6 -7
-9 -29 -6 -48 6 -34 4 -35 -45 -58 -89 -42 -134 -115 -92 -148 15 -12 14 -14
-2 -27 -18 -14 -18 -14 2 -21 27 -8 28 -29 1 -22 -23 6 -23 4 -10 -82 8 -48 8
-67 -2 -78 -10 -12 -9 -17 5 -24 13 -8 17 -24 17 -69 0 -52 3 -60 18 -60 11 0
27 -9 37 -20 10 -11 22 -20 27 -20 4 0 8 32 8 71 0 96 22 129 67 101 16 -10
-13 -179 -34 -203 -8 -9 -15 -29 -16 -45 l-2 -29 106 2 c59 2 120 8 135 14 16
6 137 15 269 20 132 5 312 16 400 25 167 16 188 18 530 34 253 12 385 13 385
2 0 -12 -39 -52 -50 -52 -6 0 -39 -20 -76 -45 -36 -25 -68 -45 -70 -45 -3 0
-20 -11 -37 -24 -44 -33 -132 -76 -156 -76 -22 0 -221 -69 -235 -81 -13 -12
-5 -18 41 -34 25 -9 38 -19 38 -31 0 -12 11 -22 30 -27 17 -5 38 -14 49 -19
17 -9 230 -5 374 8 43 4 62 2 62 -6 0 -16 -53 -62 -152 -132 -48 -34 -86 -63
-85 -65 2 -1 43 11 92 26 254 81 445 171 445 211 0 24 -17 37 -73 50 -26 7
-50 17 -53 21 -11 18 81 47 196 63 135 18 306 32 590 46 267 13 305 17 368 42
40 16 56 18 65 9 6 -6 46 -11 97 -11 146 0 810 49 935 69 33 6 77 13 98 16 79
13 110 42 68 64 -10 6 -56 15 -102 21 -95 11 -129 17 -179 31 -19 5 -145 14
-280 19 -552 21 -905 13 -1022 -22 -31 -9 -39 -8 -53 6 -9 9 -24 16 -32 16 -9
0 -14 2 -11 5 7 7 456 30 843 44 431 16 727 19 715 7 -6 -6 -10 -20 -10 -33 0
-17 -6 -23 -22 -23 -14 0 -19 -3 -12 -10 29 -29 568 -33 693 -5 199 45 231 56
231 80 0 21 5 23 53 23 28 0 58 -5 65 -10 9 -8 12 -6 12 6 0 9 8 16 20 16 17
0 20 -7 20 -39 0 -21 -6 -43 -12 -48 -7 -5 -190 -53 -407 -107 l-393 -97 -257
-19 c-489 -37 -701 -58 -701 -70 0 -3 35 -2 78 2 78 8 142 3 142 -11 0 -17 69
-40 106 -34 39 6 41 3 20 -48 -5 -12 6 -25 40 -48 26 -17 57 -31 69 -31 11 0
27 -6 33 -12 7 -7 32 -14 55 -14 24 -1 53 -5 66 -9 20 -6 22 -4 16 14 -8 27
10 27 32 1 10 -11 24 -20 33 -20 8 -1 26 -7 40 -16 24 -14 21 -14 -45 -13 -38
1 -108 0 -155 -2 -47 -2 52 -6 220 -9 168 -3 309 -2 314 3 6 4 -56 7 -137 7
-103 0 -147 3 -147 11 0 8 20 10 63 7 46 -4 69 -1 83 9 13 9 31 12 56 8 26 -5
38 -2 45 8 4 8 19 17 33 19 20 2 24 8 22 26 -3 22 -1 23 45 20 43 -3 48 -1 51
20 4 24 32 31 32 7 0 -8 7 -15 15 -15 8 0 15 9 15 20 0 17 7 20 50 20 28 0 50
5 50 10 0 6 11 8 25 4 16 -4 34 1 55 16 24 17 39 20 69 15 28 -4 41 -2 50 9
10 12 18 13 32 5 11 -5 29 -9 42 -8 12 1 37 -1 55 -6 28 -6 32 -12 32 -39 0
-18 6 -38 13 -45 10 -10 9 -14 -4 -21 -9 -6 -20 -29 -23 -53 -4 -25 -15 -49
-26 -57 -18 -13 -18 -14 -2 -26 9 -8 36 -14 60 -14 45 0 50 -4 28 -26 -9 -9
-35 -14 -69 -14 -30 0 -69 -3 -86 -6 -28 -6 -30 -8 -14 -20 15 -11 16 -13 3
-18 -164 -59 -182 -62 -400 -71 -74 -3 -199 -10 -278 -16 -79 -6 -150 -8 -159
-5 -8 4 -33 1 -55 -4 -29 -8 -43 -8 -54 1 -21 17 -88 16 -194 -5 -52 -10 -120
-22 -150 -25 -30 -4 -60 -10 -67 -14 -11 -7 -144 -14 -398 -21 -111 -3 -260
-17 -262 -24 -3 -8 -104 -6 -138 2 -17 4 -28 0 -39 -15 -14 -21 -20 -21 -115
-15 -98 7 -146 1 -105 -15 17 -6 16 -8 -9 -14 -17 -4 -39 -3 -53 4 -31 14
-240 15 -249 1 -3 -5 -35 -10 -71 -10 -49 0 -66 -4 -71 -15 -3 -9 -13 -15 -22
-14 -9 1 -29 -4 -46 -11 -16 -8 -61 -14 -98 -14 -62 -1 -68 1 -65 19 2 12 11
20 23 21 11 0 31 4 45 9 l25 9 -25 6 c-14 4 -29 4 -35 1 -5 -3 -21 -6 -35 -6
-16 0 -29 -9 -37 -25 -12 -24 -14 -24 -17 3 -2 19 -46 21 -66 2 -13 -12 -23
-14 -37 -7 -31 16 -78 21 -114 13 -19 -4 -84 -2 -149 5 -63 8 -132 15 -152 17
-21 2 -41 6 -45 10 -3 4 -26 7 -51 7 -45 0 -132 35 -132 53 0 14 -50 -1 -84
-26 -17 -12 -92 -83 -166 -158 -121 -123 -274 -258 -355 -316 -51 -36 -197
-117 -255 -142 -30 -13 -62 -29 -70 -36 -8 -7 -71 -36 -140 -64 -189 -79 -190
-79 -199 -104 -5 -12 -27 -39 -50 -60 l-41 -37 0 -396 c0 -369 1 -396 17 -390
36 14 100 18 107 7 5 -7 13 -8 25 -1 10 5 21 7 24 4 3 -3 19 2 36 11 31 16 41
40 19 47 -6 2 21 17 62 32 51 18 76 24 84 16 5 -5 33 -10 60 -11 28 0 73 -4
101 -7 44 -6 50 -10 55 -33 l5 -26 66 21 c37 11 74 27 83 35 14 12 16 11 16
-7 0 -27 17 -38 69 -46 24 -4 50 -14 56 -23 11 -15 18 -15 71 -3 33 8 61 17
64 22 3 4 21 9 39 10 21 2 44 13 62 31 15 15 44 34 63 42 19 8 38 19 41 25 4
6 15 8 26 5 10 -4 34 1 52 10 30 15 33 15 47 -3 12 -14 25 -17 60 -14 25 3 49
10 53 16 6 8 10 8 14 -1 2 -7 11 -13 19 -13 14 0 73 37 85 53 3 4 30 10 60 13
30 3 64 7 77 10 24 5 30 32 10 52 -9 9 -9 12 0 12 7 0 12 8 12 19 0 19 26 33
65 35 13 1 21 9 23 23 2 12 11 25 21 28 24 7 71 -14 71 -32 0 -7 7 -13 15 -13
8 0 15 -7 15 -15 0 -21 21 -19 27 3 6 23 52 43 80 36 12 -3 36 0 53 7 25 12
30 19 30 50 0 38 -29 77 -37 52 -4 -12 -73 -19 -73 -9 0 20 22 56 35 56 8 0
15 8 15 18 0 10 6 24 12 30 10 10 10 17 0 32 -6 11 -12 21 -12 24 0 6 82 18
154 21 62 4 72 7 93 32 13 15 26 39 29 53 5 22 10 25 37 22 22 -2 39 3 53 17
19 17 26 18 65 9 32 -9 44 -9 47 0 2 7 13 12 25 12 35 1 110 24 136 42 21 15
24 24 22 72 -2 50 0 54 21 54 13 0 47 7 77 15 57 17 71 15 71 -8 0 -8 7 -11
19 -8 28 7 74 -26 60 -43 -6 -7 -8 -23 -4 -35 5 -14 10 -17 14 -10 5 7 14 5
29 -9 11 -11 25 -20 30 -20 5 0 15 -7 22 -15 7 -8 26 -15 42 -15 16 0 31 6 34
15 8 19 19 19 38 -1 15 -14 16 -14 16 2 0 14 7 16 47 11 48 -5 85 -34 62 -48
-6 -3 -7 -9 -2 -12 21 -13 38 13 38 58 0 46 10 55 34 33 11 -10 14 -10 18 0 6
15 63 16 63 1 0 -14 41 -48 58 -49 6 0 12 5 12 10 0 6 10 0 23 -12 12 -13 22
-34 22 -48 0 -20 6 -26 28 -28 16 -2 27 -9 27 -18 0 -8 5 -12 10 -9 6 4 8 15
5 25 -3 9 -1 30 5 46 l11 29 19 -25 c11 -14 20 -35 20 -47 0 -13 5 -23 10 -23
6 0 10 -9 10 -20 0 -34 16 -22 34 23 20 54 20 60 -4 82 -25 23 -25 35 1 79 20
34 23 36 77 36 30 0 52 -3 49 -7 -4 -3 -2 -12 5 -20 9 -11 14 -11 30 4 19 17
21 17 43 -10 15 -16 34 -27 50 -27 30 0 33 -16 5 -25 -11 -3 -20 -9 -20 -13 0
-13 -141 -4 -157 10 -14 11 -15 10 -8 -12 4 -14 12 -26 16 -28 12 -5 11 -36
-2 -66 -7 -15 -23 -28 -40 -31 -15 -4 -33 -13 -40 -21 -6 -8 -19 -14 -29 -14
-10 0 -23 -7 -31 -16 -7 -8 -26 -22 -43 -31 -17 -8 -41 -25 -54 -36 -16 -15
-33 -20 -63 -18 -51 2 -86 -20 -216 -136 -51 -46 -97 -83 -103 -83 -5 0 -10
-4 -10 -10 0 -6 31 -10 73 -10 39 0 142 -9 228 -20 l155 -21 87 29 c48 16 90
26 92 22 3 -5 -16 -16 -42 -25 -27 -8 -59 -22 -73 -30 l-25 -13 30 -8 c17 -4
37 -7 46 -7 9 1 104 45 212 98 172 84 202 103 245 149 45 50 96 86 122 86 14
0 40 25 40 38 0 35 125 90 163 70 12 -6 22 -4 34 7 9 10 22 13 32 9 9 -4 36
-10 60 -14 24 -4 49 -14 55 -22 15 -20 76 -40 90 -29 6 5 26 6 44 4 23 -4 37
-14 48 -35 11 -20 19 -27 27 -20 16 12 66 21 72 12 7 -11 169 -3 173 9 2 6 8
11 14 11 6 0 7 -7 4 -16 -7 -19 30 -53 58 -54 15 0 16 2 6 15 -11 13 -9 19 8
38 20 22 20 22 1 46 -23 28 -18 39 8 17 79 -68 83 -74 68 -80 -8 -3 -15 -9
-15 -14 0 -12 66 -32 117 -36 37 -3 130 -33 175 -57 10 -5 24 -9 33 -9 8 0 29
-9 47 -20 18 -11 43 -20 56 -20 12 0 30 -4 40 -9 9 -5 82 -30 161 -56 80 -26
190 -69 245 -96 56 -28 144 -68 196 -91 52 -22 107 -49 122 -59 14 -11 29 -19
33 -19 4 0 15 -8 24 -18 18 -21 41 -30 166 -69 83 -26 103 -28 250 -28 137 0
172 3 245 24 94 26 196 74 280 131 83 55 123 75 128 61 3 -9 7 -9 18 0 11 9
20 9 40 -1 21 -12 27 -11 39 1 19 20 8 69 -16 69 -17 0 -17 3 -4 32 8 20 22
34 34 36 24 4 28 -17 9 -47 -9 -15 -8 -22 7 -37 17 -17 17 -17 11 4 -6 18 -3
22 16 22 32 0 41 9 56 51 11 32 10 43 -7 88 -23 57 -17 66 35 56 44 -8 94 2
94 20 0 23 36 23 96 -2 97 -39 179 -19 128 31 -19 19 -13 31 11 22 8 -3 18
-19 21 -36 4 -16 12 -30 19 -30 18 0 24 21 13 44 -7 12 -6 26 2 40 10 19 19
22 63 20 29 -1 62 -5 75 -9 14 -5 22 -3 22 5 0 8 12 11 34 8 27 -3 36 0 39 14
3 11 15 18 31 18 14 0 26 5 26 10 0 6 6 10 14 10 9 0 16 17 20 48 3 26 7 52 8
57 1 6 -7 12 -18 14 -36 6 -46 21 -30 45 18 29 3 68 -54 134 -45 54 -52 89
-18 94 14 2 24 13 30 33 4 16 15 36 24 42 16 12 16 15 -2 49 -10 20 -38 52
-61 71 -45 37 -53 57 -28 67 13 5 12 14 -11 58 -15 29 -33 57 -40 61 -9 5 -14
26 -14 57 0 37 -4 50 -15 50 -19 0 -45 51 -45 91 0 18 -7 37 -17 45 -16 12
-12 19 47 73 61 56 76 86 32 62 -93 -50 -578 -79 -842 -50 -52 5 -174 12 -270
15 -96 3 -204 9 -239 14 -36 5 -68 7 -72 4 -4 -2 -49 1 -101 6 -89 10 -322 25
-553 35 -169 8 -260 13 -380 23 -60 5 -185 9 -277 8 -108 -1 -167 3 -165 9 7
21 85 38 190 43 70 3 105 8 99 14 -16 16 -2 46 29 58 28 12 55 37 48 44 -2 3
-31 -2 -64 -10 -77 -18 -89 -18 -81 1 4 11 -6 20 -35 32 -35 14 -40 19 -35 39
4 15 2 24 -6 24 -6 0 -3 10 9 23 27 29 43 80 43 133 0 24 4 45 9 48 5 4 7 -3
4 -13 -4 -16 -1 -19 19 -14 12 4 28 12 34 18 8 8 31 9 70 4 97 -12 112 -11
110 8 -1 17 46 35 92 34 13 -1 32 4 43 10 16 8 26 7 44 -5 14 -9 31 -16 40
-16 9 0 27 -8 41 -17 25 -16 26 -16 22 3 -2 10 -18 28 -35 39 -18 11 -32 23
-33 26 0 13 191 21 206 9 7 -7 12 -16 9 -20 -3 -4 6 -15 20 -24 15 -10 26 -12
30 -5 4 5 15 7 25 4 10 -3 21 -1 25 5 3 5 44 10 93 10 136 0 190 9 198 33 5
17 12 19 48 14 22 -3 59 -2 81 3 51 11 303 16 332 7 31 -11 36 -35 14 -65 -28
-40 -36 -72 -17 -72 11 0 14 -11 11 -52 -3 -29 -7 -87 -9 -128 -3 -41 -8 -85
-12 -98 -6 -22 -5 -23 32 -16 22 4 43 12 47 18 6 8 10 7 14 -1 2 -7 18 -13 34
-13 40 0 52 33 43 122 -5 57 -4 72 10 87 29 31 25 99 -7 146 -46 67 -10 52 60
-25 99 -108 246 -211 358 -250 l50 -17 765 130 765 130 750 7 c693 8 943 17
1020 38 30 8 30 9 8 20 -35 19 -233 50 -433 67 -102 9 -193 18 -203 21 -10 3
-86 7 -170 9 -240 5 -751 35 -761 46 -6 5 -3 14 9 23 17 12 17 16 4 29 -8 9
-20 23 -27 32 -8 10 -21 13 -33 10 -11 -4 -19 -2 -19 4 0 14 26 14 53 -1 21
-11 230 -24 504 -30 l113 -3 0 -32 c0 -31 1 -32 54 -38 30 -4 78 -4 108 -1 29
3 64 6 78 7 14 0 28 6 32 12 5 7 7 2 6 -11 -3 -21 2 -24 35 -26 23 -2 41 2 45
10 6 11 53 11 267 -1 270 -16 690 -34 784 -35 44 0 51 2 42 13 -6 8 -8 16 -5
19 11 11 42 -4 47 -23 3 -10 13 -19 22 -19 11 0 15 -5 12 -14 -3 -8 3 -22 14
-32 10 -9 19 -23 19 -30 0 -7 16 -18 35 -24 19 -6 35 -16 35 -21 0 -12 37 -12
45 1 3 6 1 10 -4 10 -6 0 -30 20 -53 45 -23 25 -49 45 -56 45 -8 0 -12 6 -10
13 5 13 69 22 103 13 31 -8 52 -60 34 -82 -11 -13 -10 -17 4 -26 10 -5 15 -13
12 -19 -4 -5 1 -9 10 -9 23 0 28 23 10 56 -8 16 -15 39 -15 52 0 22 3 23 58
20 l57 -3 -1 -47 c-1 -27 2 -48 5 -48 4 0 18 11 30 24 23 24 23 66 0 66 -10 0
-66 107 -58 113 2 3 37 0 78 -6 86 -12 104 -9 451 63 227 48 252 51 343 46 64
-4 97 -3 97 4 0 13 64 8 108 -9 35 -14 43 -31 13 -31 -10 0 -21 -8 -24 -19 -6
-23 -58 -35 -72 -17 -16 20 -35 7 -35 -24 0 -16 -5 -32 -11 -35 -17 -11 -17
-3 -5 46 l12 47 -35 6 c-69 11 -119 6 -390 -41 -206 -36 -267 -50 -245 -55
166 -43 282 -68 308 -68 17 0 65 9 106 21 58 16 93 19 155 16 44 -3 138 -7
208 -9 93 -2 130 -7 136 -16 7 -11 12 -12 29 -1 16 10 64 11 249 1 125 -6 292
-15 371 -18 l142 -7 0 70 0 70 -102 6 c-85 6 -314 12 -697 21 -36 1 -56 6 -59
14 -4 12 51 13 319 8 178 -4 372 -9 432 -12 l107 -6 0 40 c0 47 14 41 -180 71
-212 34 -339 43 -523 40 l-177 -4 0 42 c0 36 -4 43 -35 62 -25 15 -35 27 -35
46 0 18 -6 25 -20 27 -11 0 -26 1 -32 2 -14 1 -14 -4 -4 -46 5 -21 3 -28 -8
-28 -19 0 -39 -70 -30 -105 3 -14 2 -25 -2 -25 -13 -1 -164 -25 -294 -49 -216
-38 -525 -61 -608 -45 l-30 6 6 92 c9 142 7 153 -28 182 -17 15 -37 39 -45 54
-8 15 -27 33 -43 39 -27 11 -29 16 -25 50 4 30 1 42 -17 58 -55 52 -180 27
-180 -36 0 -12 72 -51 95 -51 17 0 20 -31 4 -47 -19 -19 -29 -94 -13 -100 16
-6 18 -32 5 -65 -5 -13 -14 -41 -20 -63 -21 -82 -16 -81 -196 -41 -405 89
-641 111 -834 77 -134 -24 -143 -21 -135 43 10 66 -19 149 -61 182 -26 20 -33
30 -26 42 15 27 -8 62 -41 62 -24 0 -28 -4 -28 -29 0 -16 6 -31 15 -35 22 -8
18 -25 -9 -36 -29 -11 -46 -56 -46 -123 0 -43 -2 -48 -17 -42 -10 4 -26 10
-37 13 -14 4 -17 12 -13 37 4 26 2 34 -12 38 -10 2 -26 0 -35 -5 -17 -10 -22
-48 -6 -48 20 0 10 -31 -13 -39 -15 -6 -28 -24 -37 -50 l-13 -41 -70 0 c-57 0
-68 3 -64 15 4 8 -3 40 -13 71 -11 32 -20 65 -20 76 0 10 -5 18 -10 18 -18 0
-24 -32 -12 -63 6 -17 10 -32 8 -34 -6 -7 -40 -5 -65 3 -22 6 -23 5 -18 -19 4
-14 10 -32 13 -41 5 -14 -11 -16 -143 -16 -146 0 -248 -16 -264 -42 -4 -6
-134 -5 -355 1 -192 6 -453 14 -581 17 -128 4 -230 11 -227 16 3 4 24 8 47 9
38 0 40 1 17 10 -25 10 -25 11 -5 25 19 14 19 16 2 25 -9 6 -15 15 -11 20 3 6
-1 18 -9 27 -15 19 -28 47 -34 76 -4 23 -2 22 -30 30 -20 6 -23 4 -23 -17 0
-16 -8 -28 -25 -35 -36 -16 -43 -15 -47 8 -4 25 -23 27 -23 2 0 -9 -2 -21 -5
-27 -3 -5 -5 -39 -5 -75 2 -59 4 -65 26 -70 53 -13 -64 -20 -356 -20 -165 0
-358 -4 -430 -10 -71 -5 -341 -18 -600 -29 -452 -18 -645 -18 -645 0 0 10 103
14 223 10 50 -2 77 1 77 8 0 7 30 9 93 5 50 -3 131 -2 178 1 l87 7 11 56 c17
87 15 99 -21 111 -29 10 -30 12 -14 24 16 12 18 32 19 175 0 127 3 162 14 162
9 0 13 16 13 56 l0 55 -37 -3 c-38 -3 -38 -3 -41 -51 -3 -42 0 -49 17 -54 16
-4 18 -9 11 -28 -5 -12 -5 -26 0 -31 8 -8 19 -234 12 -234 -2 0 -10 7 -19 16
-14 14 -17 14 -32 0 -12 -13 -13 -20 -4 -35 10 -16 8 -22 -12 -35 -13 -9 -32
-16 -42 -17 -14 0 -13 -2 5 -9 19 -8 21 -13 12 -30 -6 -11 -8 -31 -4 -44 6
-24 5 -24 -30 -14 -19 6 -33 14 -31 19 7 10 -14 112 -25 123 -6 6 -12 1 -18
-13 -7 -20 -10 -21 -21 -8 -8 10 -9 17 -1 22 15 9 12 31 -6 50 -10 9 -17 33
-18 52 -1 38 -12 48 -35 34 -11 -7 -11 -14 3 -42 10 -21 13 -35 6 -39 -5 -3
-11 -19 -11 -36 -1 -16 -13 -54 -27 -84 -13 -30 -24 -65 -24 -77 -1 -22 -2
-23 -18 -8 -19 17 -40 20 -40 5 0 -5 -5 -10 -11 -10 -6 0 -9 6 -6 14 3 8 -9
33 -26 57 -18 24 -30 45 -28 47 2 2 -8 21 -22 43 -15 22 -24 46 -21 53 4 11
-6 14 -43 12 l-48 -1 0 -48 c-1 -27 -5 -51 -11 -55 -5 -4 -11 -23 -12 -42 -5
-74 -42 -139 -79 -140 -7 0 -13 -4 -13 -9 0 -5 6 -12 13 -14 20 -9 -54 -7 -99
2 -35 7 -41 5 -40 -8 1 -10 14 -18 36 -22 35 -5 34 -5 -15 -13 -79 -11 -269
-57 -282 -68 -8 -7 -15 2 -23 34 -7 24 -18 58 -26 77 -8 18 -12 36 -10 39 3 3
13 -12 21 -33 15 -34 19 -37 47 -31 17 3 58 6 92 7 l61 0 -78 24 c-43 12 -86
30 -96 39 -10 9 -25 14 -35 10 -12 -4 -16 0 -16 15 0 16 -8 23 -30 27 -16 4
-27 10 -24 15 3 5 2 9 -3 9 -14 -1 -39 -24 -57 -52 -18 -28 -18 -28 7 -28 14
0 27 6 30 13 3 7 7 5 12 -8 3 -11 22 -50 41 -87 19 -38 34 -70 34 -73 0 -3
-15 -5 -32 -6 -30 0 -31 -1 -10 -9 13 -6 22 -15 20 -22 -1 -7 5 -24 15 -39 20
-30 35 -95 20 -86 -6 4 -14 22 -17 40 -3 18 -19 48 -35 67 -25 31 -35 35 -78
36 -55 1 -93 11 -93 24 0 11 -40 25 -59 21 -10 -2 -11 3 -6 16 5 10 9 73 11
141 2 104 5 125 20 136 16 12 15 13 -5 19 -19 5 -21 11 -19 59 2 42 0 53 -12
53 -8 0 -16 -10 -18 -22 -5 -31 -30 -29 -38 2 -4 14 -4 108 0 208 4 100 11
340 16 532 5 193 12 384 16 425 6 74 23 110 50 110 7 0 16 16 19 38 3 20 10
51 14 67 26 89 24 158 -5 134 -17 -14 -19 6 -4 45 8 21 6 26 -5 26 -11 0 -14
7 -9 25 5 20 3 24 -9 19 -11 -4 -16 0 -16 13 0 10 -3 32 -6 48 -5 24 -1 35 19
54 14 14 26 21 26 17 0 -5 16 7 36 26 36 36 57 89 55 142 0 16 4 37 10 48 15
27 7 31 -27 13 -39 -20 -41 -20 -48 16 -3 17 -10 28 -16 24 -5 -3 -10 3 -10
14 0 23 -16 36 -25 21 -3 -5 -17 -10 -30 -10 -13 0 -29 -8 -34 -17 -6 -10 -11
-14 -11 -9 0 5 -6 4 -13 -2 -7 -6 -35 -9 -62 -8 -39 2 -55 -1 -73 -17 -21 -20
-21 -22 -5 -46 11 -18 13 -26 4 -29 -6 -2 -18 -10 -25 -18 -16 -15 -46 -9 -59
13 -11 18 -46 17 -53 -2 -7 -17 -46 -20 -75 -5 -13 7 -19 7 -19 0 0 -5 -11
-10 -24 -10 -19 0 -23 -4 -19 -19 4 -14 -3 -24 -26 -35 -34 -18 -37 -26 -19
-44 9 -9 6 -12 -13 -12 -27 0 -79 -21 -79 -31 0 -4 7 -9 15 -13 8 -3 15 -17
15 -31 0 -21 5 -25 30 -25 56 0 26 -29 -51 -50 -39 -11 -41 -13 -22 -21 18 -6
21 -14 17 -48 -2 -23 -10 -51 -18 -64 -7 -12 -17 -35 -20 -50 -6 -26 -5 -28
21 -27 68 5 72 -1 44 -73 -16 -41 -14 -52 7 -34 10 10 24 17 31 17 7 0 21 10
32 23 18 21 19 21 30 3 18 -30 29 1 22 62 -4 36 -2 52 6 52 6 0 12 -1 14 -2 3
-4 81 45 90 56 12 15 -3 -33 -19 -66 -8 -15 -14 -40 -14 -56 0 -16 -9 -37 -19
-46 -47 -42 -87 -190 -56 -202 10 -4 15 -20 15 -49 0 -28 6 -47 18 -58 26 -24
52 -22 52 4 0 15 4 19 16 15 9 -3 18 -6 20 -6 12 0 -8 -597 -31 -950 -9 -130
-12 -144 -39 -156 -33 -15 -49 -3 -40 30 6 24 4 27 -12 24 -16 -3 -19 -12 -16
-56 1 -29 -2 -52 -7 -52 -16 0 -31 91 -18 111 8 13 8 21 -2 33 -17 20 -34 10
-26 -15 4 -11 2 -26 -4 -33 -20 -24 -41 -94 -29 -98 21 -7 0 -37 -21 -31 -15
4 -21 1 -21 -12 0 -14 -6 -15 -32 -9 -53 11 -78 13 -83 4 -6 -9 44 -20 91 -20
23 0 34 -5 37 -17 4 -17 5 -17 6 0 1 24 21 22 21 -2 0 -11 5 -23 10 -26 16
-10 12 -22 -10 -28 -10 -3 -21 0 -24 7 -3 7 -5 7 -5 -1 -2 -24 -30 -13 -45 16
-19 36 -53 47 -61 20 -8 -25 -25 -24 -25 1 0 11 -4 20 -10 20 -5 0 -17 16 -26
36 -10 20 -26 39 -36 42 -10 2 -18 12 -18 22 0 21 -25 44 -38 36 -5 -3 -12
-19 -15 -36 -5 -23 -12 -30 -31 -30 -13 0 -26 7 -30 15 -6 17 -42 20 -51 5
-10 -15 -35 -12 -35 5 0 23 -28 18 -35 -6 -6 -17 -12 -20 -33 -14 -64 15 -82
17 -82 6 0 -7 -20 -11 -50 -11 l-50 0 0 35 c0 21 5 35 13 35 13 1 -24 35 -46
43 -9 3 -9 8 2 20 9 11 10 17 2 17 -6 0 -11 16 -11 35 0 24 -5 35 -15 35 -8 0
-15 -3 -16 -7 -3 -28 -10 -43 -32 -67 -17 -18 -27 -43 -31 -80 l-7 -54 -57 -4
c-31 -2 -61 -1 -66 3 -17 15 -23 248 -17 619 4 206 6 459 4 562 -3 208 3 261
32 267 27 5 70 51 78 84 4 15 14 27 21 27 20 0 26 23 26 95 0 43 -5 66 -15 75
-8 7 -15 18 -15 26 0 7 -4 15 -9 19 -5 3 -9 -8 -9 -25 1 -17 -3 -35 -9 -41 -6
-6 -10 7 -12 40 -1 28 -6 63 -12 78 -8 23 -8 26 2 16 19 -19 31 -16 20 6 -8
14 -6 21 12 30 13 7 28 11 34 9 7 -2 18 5 26 16 10 13 26 19 55 19 23 0 47 6
53 13 6 8 18 14 25 14 8 0 14 5 14 10 0 6 7 10 15 10 8 0 15 7 15 15 0 8 -7
15 -15 15 -8 0 -15 4 -15 9 0 5 -18 27 -40 49 -30 29 -37 41 -27 45 19 7 11
47 -16 79 -28 33 -101 48 -111 23 -5 -15 -7 -15 -21 -1 -9 9 -34 20 -56 26
-22 6 -46 13 -54 16 -8 4 -15 -3 -17 -18 -2 -15 -9 -23 -21 -22 -10 1 -17 -5
-17 -17 0 -12 -7 -19 -20 -19 -11 0 -20 5 -20 11 0 5 -5 7 -12 3 -8 -5 -9 -2
-5 10 4 10 7 21 7 25 0 4 16 15 35 24 42 20 85 94 63 108 -18 12 -75 11 -118
-1 -50 -14 -94 0 -98 31 -7 64 -25 109 -43 109 -11 0 -19 -7 -19 -16 0 -10 -6
-14 -14 -11 -8 3 -17 -1 -20 -10 -5 -12 -9 -13 -20 -3 -11 8 -20 8 -34 1 -16
-8 -26 -4 -58 24 -40 36 -58 42 -69 25 -5 -8 -11 -7 -21 1 -11 9 -15 8 -20 -5
-3 -9 -16 -16 -27 -16 -21 0 -21 0 1 -16 29 -20 31 -49 2 -34 -24 13 -40 6
-40 -18 -1 -29 -23 -50 -45 -41 -30 12 -35 10 -28 -7 5 -14 2 -16 -20 -10 -55
13 -28 -22 62 -84 28 -19 51 -38 51 -42 0 -5 -17 -8 -38 -8 -26 0 -41 6 -50
20 -7 11 -19 20 -27 20 -8 0 -15 7 -15 15 0 8 -6 15 -14 15 -8 0 -18 16 -23
38 -6 27 -14 38 -31 40 -26 4 -28 15 -7 32 17 14 20 40 5 40 -5 0 -7 6 -4 13
3 10 -11 16 -53 23 -55 9 -58 10 -55 37 2 22 -1 27 -20 27 -18 0 -20 -2 -8
-10 8 -5 11 -12 8 -15 -10 -10 -28 4 -28 21 0 8 -4 12 -10 9 -5 -3 -10 -16
-10 -28 0 -12 -5 -29 -10 -37 -9 -13 -11 -13 -20 0 -6 10 -10 11 -10 3 0 -7
-5 -13 -11 -13 -6 0 -9 6 -6 14 4 10 -12 27 -44 50 -55 40 -55 40 -64 25z
m415 -404 c0 -15 -38 -37 -51 -29 -3 2 -12 -15 -19 -36 -7 -22 -17 -40 -22
-40 -4 0 -8 -5 -8 -11 0 -6 7 -9 15 -5 18 6 75 -12 75 -25 0 -5 9 -9 20 -9 24
0 26 -22 5 -40 -8 -7 -15 -19 -15 -27 0 -7 -7 -16 -16 -20 -23 -9 -37 -52 -23
-70 9 -10 9 -17 1 -25 -14 -14 -16 -48 -3 -48 5 0 14 7 21 15 23 27 30 16 25
-37 -6 -59 -15 -68 -67 -68 -42 0 -49 13 -48 82 1 55 -10 117 -21 124 -5 3 -9
12 -9 20 0 8 -11 31 -24 52 -22 36 -23 39 -8 76 12 32 19 37 39 33 19 -4 30 4
55 42 18 25 36 49 42 53 18 13 36 9 36 -7z m600 -13 c0 -14 -23 -32 -41 -32
-27 0 -12 35 17 38 13 1 24 -2 24 -6z m-258 -36 c5 -24 -23 -61 -36 -49 -3 4
-6 2 -6 -3 0 -6 5 -15 11 -21 8 -8 -1 -13 -32 -18 -24 -4 -49 -15 -56 -24 -11
-14 -12 -11 -8 17 4 26 1 37 -15 50 -15 13 -17 21 -10 32 8 13 11 11 16 -7 7
-26 24 -31 24 -7 0 11 6 14 20 9 14 -5 20 -2 20 9 0 9 7 16 16 16 8 0 12 5 9
10 -3 6 5 10 18 10 18 0 26 -6 29 -24z m78 14 c0 -5 -4 -10 -10 -10 -5 0 -10
-10 -10 -22 0 -16 -3 -19 -11 -11 -8 8 -8 17 0 32 12 22 31 29 31 11z m-852
-84 c3 -12 -8 -30 -28 -48 -18 -15 -35 -28 -37 -28 -6 0 3 38 17 75 12 31 43
31 48 1z m972 3 c0 -6 7 -9 15 -5 9 3 15 0 15 -10 0 -15 2 -15 24 -1 34 23 63
12 64 -24 1 -32 -14 -37 -44 -14 -10 8 -26 15 -35 15 -18 0 -69 50 -51 50 7 0
12 -5 12 -11z m-219 -42 c-1 -12 -15 -9 -19 4 -3 6 1 10 8 8 6 -3 11 -8 11
-12z m-546 -17 c3 -5 -1 -10 -9 -10 -9 0 -16 5 -16 10 0 6 4 10 9 10 6 0 13
-4 16 -10z m403 -3 c24 6 31 -12 7 -20 -17 -7 -68 17 -58 26 3 4 11 3 18 -3 6
-5 21 -7 33 -3z m332 -13 c14 -2 34 -18 45 -34 15 -22 25 -28 40 -24 11 4 23
11 26 16 4 6 15 5 30 -3 13 -7 37 -15 53 -18 20 -5 30 -13 33 -29 2 -13 -1
-21 -7 -17 -12 8 -51 -13 -68 -37 -18 -25 -52 -24 -45 2 5 17 2 18 -26 10 -16
-4 -39 -6 -51 -3 -11 3 -28 -1 -38 -8 -15 -12 -16 -12 -6 1 16 21 25 62 12 54
-15 -9 -28 16 -28 55 0 29 -3 33 -21 28 -25 -7 -49 1 -49 15 0 9 22 8 100 -8z
m320 -17 c0 -14 -20 -37 -32 -37 -4 0 -2 11 4 25 12 27 28 34 28 12z m-599
-30 c-1 -4 -1 -13 -1 -21 0 -8 -9 -13 -24 -12 -23 1 -24 7 -3 34 10 13 29 12
28 -1z m514 3 c3 -5 1 -10 -4 -10 -6 0 -11 5 -11 10 0 6 2 10 4 10 3 0 8 -4
11 -10z m1469 -61 c12 10 13 6 6 -24 -4 -19 -6 -43 -4 -53 6 -19 -51 -102 -70
-102 -23 0 -66 -25 -72 -42 -3 -10 -13 -18 -23 -18 -13 0 -18 -8 -18 -24 0
-17 4 -23 13 -19 22 8 17 -41 -6 -62 -20 -18 -21 -18 -34 0 -13 18 -10 61 6
82 12 15 2 33 -18 33 -8 0 -14 10 -14 24 0 27 16 44 22 25 3 -9 9 -9 26 0 12
6 32 9 45 6 15 -4 28 -1 36 9 8 9 19 16 27 16 18 0 35 34 28 54 -3 9 -12 16
-19 16 -7 0 -15 6 -18 14 -8 20 17 50 35 43 12 -4 14 0 10 16 -5 20 -4 20 11
8 13 -10 20 -11 31 -2z m-2351 -14 c4 -8 2 -17 -3 -20 -6 -4 -10 3 -10 14 0
25 6 27 13 6z m302 5 c3 -5 1 -10 -4 -10 -6 0 -11 5 -11 10 0 6 2 10 4 10 3 0
8 -4 11 -10z m-75 -61 c0 -5 -4 -9 -10 -9 -5 0 -10 7 -10 16 0 14 -3 14 -15 4
-9 -8 -15 -8 -15 -2 0 6 6 12 13 15 13 5 37 -10 37 -24z m1810 -65 c0 -10 -6
-14 -15 -10 -16 6 -17 -18 -2 -41 11 -17 -3 -16 -25 1 -26 19 -22 41 10 53 15
6 28 11 30 12 1 1 2 -6 2 -15z m-1980 -64 c0 -5 -2 -10 -4 -10 -3 0 -8 5 -11
10 -3 6 -1 10 4 10 6 0 11 -4 11 -10z m680 -157 c0 -8 7 -30 16 -48 11 -23 20
-31 33 -28 24 6 31 -24 25 -107 -7 -89 -10 -97 -49 -116 -31 -14 -33 -18 -24
-41 9 -23 8 -25 -13 -19 -13 3 -32 6 -43 6 -19 0 -20 6 -17 75 3 70 6 76 33
96 35 25 37 47 5 55 -17 4 -22 11 -19 25 3 10 1 19 -5 19 -6 0 -13 14 -16 30
-3 17 -8 43 -11 58 -5 24 -1 30 22 39 24 8 31 7 46 -10 9 -10 17 -26 17 -34z
m-745 -13 c-3 -5 -10 -10 -16 -10 -5 0 -9 5 -9 10 0 6 7 10 16 10 8 0 12 -4 9
-10z m49 -6 c9 -3 14 -10 11 -15 -7 -10 -35 0 -35 12 0 11 3 11 24 3z m2138
-19 c-5 -31 -22 -44 -22 -18 0 15 17 43 26 43 1 0 -1 -11 -4 -25z m-2207 -98
c17 -3 45 -31 45 -45 0 -10 7 -12 24 -8 14 3 28 1 31 -5 4 -6 18 -8 30 -5 13
3 26 2 29 -3 3 -5 14 -8 24 -6 9 1 11 0 5 -2 -16 -5 -17 -19 -3 -28 15 -10 12
-46 -7 -67 -25 -28 -36 -22 -30 16 4 26 2 34 -8 30 -7 -3 -20 5 -29 17 l-16
23 -54 -18 -54 -19 -4 -56 c-5 -81 2 -123 18 -117 7 3 15 0 18 -7 5 -9 7 -9
12 1 3 6 18 12 34 12 31 0 57 20 71 57 4 12 13 23 18 23 19 0 22 -20 8 -52
-16 -39 -47 -165 -47 -193 0 -25 42 -75 64 -75 9 0 16 5 16 10 0 6 7 10 15 10
9 0 15 -9 15 -25 0 -45 -39 -548 -51 -662 -12 -107 -13 -113 -35 -113 -28 0
-38 -14 -30 -46 7 -25 31 -33 39 -11 8 20 42 -7 45 -37 3 -23 0 -26 -25 -26
-16 0 -34 -5 -39 -10 -8 -8 -15 -6 -24 5 -7 8 -18 15 -24 15 -12 0 -55 -43
-57 -58 -4 -19 -12 -32 -21 -32 -5 0 -6 9 -3 20 10 31 -4 60 -28 61 -17 1 -18
2 -4 6 20 5 23 19 5 26 -23 8 25 38 52 33 14 -3 32 0 40 6 12 8 12 9 -2 4 -14
-4 -18 0 -18 17 0 12 -7 35 -15 51 -19 36 -19 51 0 80 14 20 14 25 1 35 -11 9
-20 9 -34 2 -18 -10 -20 -6 -26 54 -9 85 -7 1171 2 1180 4 4 9 -9 12 -29 3
-20 10 -38 15 -39z m562 26 c-3 -3 -11 -2 -17 2 -9 6 -9 10 1 16 14 8 27 -7
16 -18z m1710 0 c4 -10 13 -24 20 -31 7 -7 13 -20 13 -29 0 -9 6 -13 15 -9 21
8 48 -23 41 -48 -4 -12 -11 -151 -16 -311 -14 -382 -40 -907 -46 -917 -3 -4 8
-8 24 -8 16 0 36 -8 44 -17 17 -20 32 -69 29 -95 -1 -10 3 -18 10 -18 7 0 9
-3 6 -6 -4 -4 -24 5 -46 19 -43 28 -84 28 -73 -1 5 -14 3 -15 -10 -5 -8 7 -18
10 -21 6 -11 -10 -8 -83 3 -83 6 0 10 -22 10 -50 0 -49 0 -50 -32 -50 -29 0
-30 1 -16 18 8 9 18 27 21 39 4 19 0 23 -32 29 l-36 7 35 12 c31 12 33 14 15
21 -11 5 -44 25 -74 43 l-54 34 7 241 c4 133 11 304 16 381 5 78 12 244 16
370 3 127 9 234 13 240 5 5 14 27 21 48 10 33 10 41 -4 56 -15 17 -15 19 -1
24 10 5 15 20 15 51 0 35 3 44 14 40 8 -3 23 -1 33 5 25 15 33 14 40 -6z
m-1657 -3 c0 -5 -4 -10 -10 -10 -5 0 -10 5 -10 10 0 6 5 10 10 10 6 0 10 -4
10 -10z m-722 -7 c-1 -5 4 -21 11 -37 8 -19 10 -66 6 -145 -3 -64 -10 -338
-15 -609 l-9 -493 -26 -31 c-20 -24 -25 -37 -20 -59 6 -25 4 -29 -17 -29 -20
0 -23 6 -25 38 -2 20 -5 66 -9 102 -4 36 -1 148 5 250 6 102 18 322 26 490 29
586 24 530 51 530 13 0 23 -3 22 -7z m282 -3 c0 -5 -4 -10 -10 -10 -5 0 -10 5
-10 10 0 6 5 10 10 10 6 0 10 -4 10 -10z m319 -54 c-9 -8 -10 -7 -5 7 3 10 7
24 7 30 1 7 3 4 6 -7 3 -10 -1 -23 -8 -30z m-173 -23 c-10 -10 -19 5 -10 18 6
11 8 11 12 0 2 -7 1 -15 -2 -18z m-66 13 c0 -3 -4 -8 -10 -11 -5 -3 -10 -1
-10 4 0 6 5 11 10 11 6 0 10 -2 10 -4z m247 -28 c-3 -8 -6 -5 -6 6 -1 11 2 17
5 13 3 -3 4 -12 1 -19z m-143 -34 c9 -3 16 -16 16 -27 0 -16 3 -18 12 -9 7 7
21 12 31 12 19 0 19 -5 13 -82 -12 -141 -15 -188 -21 -333 -15 -366 -41 -703
-57 -757 l-11 -37 -17 22 c-15 18 -20 19 -34 8 -9 -7 -16 -19 -16 -26 0 -7 -7
-18 -15 -25 -13 -11 -15 0 -15 91 0 57 7 208 15 334 8 127 18 284 21 350 4 66
10 124 15 130 5 5 9 38 9 75 0 38 6 77 15 94 17 31 20 72 6 80 -8 5 -6 28 5
84 5 24 5 25 28 16z m156 -111 c0 -13 -4 -23 -10 -23 -5 0 -10 -15 -11 -32 -1
-18 -5 -44 -10 -58 -6 -17 -7 -5 -4 39 3 35 5 82 5 105 1 41 1 41 15 16 8 -14
14 -35 15 -47z m312 -56 c-2 -40 -5 -79 -8 -89 -4 -15 -62 -43 -71 -35 -2 2 0
18 3 36 5 21 11 30 20 27 19 -7 18 9 -2 40 -9 13 -14 28 -10 32 4 3 11 0 15
-7 10 -15 14 -10 31 42 17 54 24 38 22 -46z m-3231 14 c25 -23 23 -74 -3 -79
-20 -4 -26 32 -7 43 7 5 5 15 -6 31 -19 29 -12 31 16 5z m3100 -109 c17 -23
18 -27 4 -42 -8 -9 -15 -24 -15 -33 0 -9 -4 -19 -10 -22 -6 -4 -9 29 -8 92 0
54 3 83 5 64 3 -19 13 -46 24 -59z m26 72 c-3 -3 -12 -4 -19 -1 -8 3 -5 6 6 6
11 1 17 -2 13 -5z m-150 -51 c-3 -10 -5 -2 -5 17 0 19 2 27 5 18 2 -10 2 -26
0 -35z m-3067 33 c0 -3 -4 -8 -10 -11 -5 -3 -10 -1 -10 4 0 6 5 11 10 11 6 0
10 -2 10 -4z m448 -41 c2 -2 -5 -15 -16 -29 l-20 -26 -16 25 c-25 38 -21 48
16 41 17 -3 34 -8 36 -11z m-88 -5 c0 -5 -5 -10 -11 -10 -5 0 -7 5 -4 10 3 6
8 10 11 10 2 0 4 -4 4 -10z m2764 -58 c10 -30 0 -124 -18 -166 -22 -52 -20
-98 5 -140 19 -33 20 -45 14 -238 -8 -277 -13 -331 -31 -324 -9 4 -14 -2 -14
-17 -1 -20 -1 -21 -11 -4 -11 18 -14 411 -4 428 3 4 8 86 11 181 4 95 7 184 9
198 1 14 3 42 3 63 2 40 26 52 36 19z m188 -147 c-6 -365 -31 -769 -48 -797
-3 -4 -12 -8 -21 -8 -14 0 -15 18 -9 153 3 83 8 240 11 347 4 133 11 212 22
248 8 29 12 56 9 59 -3 4 -6 0 -6 -8 0 -12 -2 -12 -9 1 -6 8 -7 27 -4 44 4 19
1 33 -9 40 -8 6 -14 23 -14 37 0 24 3 26 41 25 l40 -1 -3 -140z m-305 78 c4
-9 1 -164 -6 -344 -9 -245 -15 -337 -26 -364 -9 -19 -20 -35 -25 -35 -13 0
-13 69 0 279 5 91 13 237 16 324 5 126 9 157 20 157 8 0 18 -8 21 -17z m183
-108 c0 -8 -4 -17 -10 -20 -6 -4 -10 5 -10 20 0 15 4 24 10 20 6 -3 10 -12 10
-20z m-2805 -115 c-3 -5 -11 -10 -16 -10 -6 0 -7 5 -4 10 3 6 11 10 16 10 6 0
7 -4 4 -10z m2805 -40 c0 -11 -4 -20 -10 -20 -5 0 -10 9 -10 20 0 11 5 20 10
20 6 0 10 -9 10 -20z m-13 -62 c-3 -8 -6 -5 -6 6 -1 11 2 17 5 13 3 -3 4 -12
1 -19z m-1993 -440 c9 -35 8 -38 -14 -38 -14 0 -20 7 -20 23 0 41 24 51 34 15z
m1241 -7 c-7 -23 -25 -29 -25 -8 0 14 21 39 28 33 2 -3 1 -14 -3 -25z m-1133
-16 c-4 -24 -25 -34 -36 -17 -7 11 23 54 33 47 5 -2 6 -16 3 -30z m2295 29
c-3 -3 -12 -4 -19 -1 -8 3 -5 6 6 6 11 1 17 -2 13 -5z m-3911 -79 c4 -10 14
-13 30 -9 14 4 24 2 24 -5 0 -14 -34 -20 -87 -17 -61 4 -65 5 -58 16 3 6 17 7
29 4 16 -4 25 0 29 10 8 20 26 21 33 1z m1904 -11 c0 -14 -4 -23 -10 -19 -5 3
-10 15 -10 26 0 10 5 19 10 19 6 0 10 -12 10 -26z m2967 -66 c9 -10 12 -18 6
-18 -20 0 -39 36 -37 68 2 49 7 51 11 7 3 -22 12 -48 20 -57z m-3174 52 c3
-11 1 -20 -4 -20 -5 0 -9 9 -9 20 0 11 2 20 4 20 2 0 6 -9 9 -20z m1737 -1 c0
-4 -7 -6 -16 -2 -13 5 -14 0 -9 -30 7 -35 0 -77 -13 -77 -11 0 -8 104 3 116
11 12 35 7 35 -7z m-1494 -10 c8 -13 -4 -24 -35 -34 l-24 -7 19 26 c21 28 29
31 40 15z m249 1 c-3 -5 1 -10 10 -10 9 0 13 5 10 10 -4 6 9 10 32 9 35 0 36
-1 13 -10 -14 -6 -28 -17 -33 -25 -9 -15 -35 -18 -55 -6 -16 11 -5 42 15 42 8
0 11 -4 8 -10z m-2063 -22 c-7 -7 -12 -8 -12 -2 0 14 12 26 19 19 2 -3 -1 -11
-7 -17z m1274 -14 c8 -20 13 -38 10 -41 -5 -6 -36 51 -36 67 0 20 11 9 26 -26z
m4774 11 c16 -20 10 -26 -18 -18 -12 3 -22 12 -22 19 0 19 24 18 40 -1z
m-5056 -56 c-3 -6 -64 -10 -64 -5 0 2 5 18 11 36 l12 32 22 -28 c13 -16 21
-32 19 -35z m2460 45 c12 -11 13 -20 6 -34 -7 -13 -6 -20 3 -23 7 -3 5 -6 -5
-6 -9 -1 -20 9 -23 22 -4 12 -9 30 -11 40 -7 21 9 22 30 1z m1176 6 c0 -5 -4
-10 -9 -10 -6 0 -13 5 -16 10 -3 6 1 10 9 10 9 0 16 -4 16 -10z m-4434 -21
c22 -18 17 -30 -10 -23 -13 3 -37 -1 -53 -10 -28 -14 -31 -13 -47 5 -13 16
-15 24 -5 35 14 16 92 12 115 -7z m3526 -14 l-4 -35 -62 0 -62 0 -2 35 -3 35
69 0 68 0 -4 -35z m254 12 c4 -12 7 -28 6 -34 -2 -7 3 -13 10 -13 8 -1 5 -6
-6 -15 -11 -8 -15 -15 -9 -15 24 0 22 -31 -2 -42 -18 -8 -22 -14 -14 -24 15
-19 0 -22 -80 -15 -51 4 -76 10 -79 20 -3 9 0 12 10 8 18 -6 97 11 116 26 25
20 10 27 -48 20 l-59 -6 6 39 c10 64 15 69 81 71 55 3 61 1 68 -20z m6274 -57
c0 -64 -3 -80 -15 -80 -10 0 -15 10 -15 34 0 18 -3 54 -6 80 -6 42 -5 46 15
46 20 0 21 -5 21 -80z m-10345 60 c3 -5 -1 -10 -10 -10 -9 0 -13 5 -10 10 3 6
8 10 10 10 2 0 7 -4 10 -10z m4355 -15 c0 -23 -4 -25 -47 -26 l-48 -1 44 -14
c24 -7 48 -11 52 -8 5 3 9 -10 9 -29 0 -41 -11 -47 -80 -47 -30 0 -52 5 -60
15 -15 18 -60 20 -60 3 0 -6 -2 -9 -5 -6 -3 3 1 17 8 31 10 20 17 23 25 15 9
-9 12 -7 12 10 0 12 4 22 10 22 5 0 7 -6 4 -14 -3 -8 -1 -17 5 -21 7 -4 11 4
11 19 0 41 34 73 80 74 36 2 40 0 40 -23z m2110 -15 c0 -17 -7 -30 -17 -35
-14 -5 -15 -4 -6 6 7 7 9 24 6 42 -4 21 -3 28 5 23 7 -4 12 -20 12 -36z
m-6425 20 c3 -5 -1 -10 -9 -10 -9 0 -16 5 -16 10 0 6 4 10 9 10 6 0 13 -4 16
-10z m2348 4 c3 -3 -3 -16 -14 -27 -15 -17 -22 -18 -32 -8 -10 10 -8 15 7 27
22 15 30 17 39 8z m240 -16 c11 24 26 29 29 10 7 -61 4 -68 -29 -68 -39 0 -47
11 -37 53 l7 32 9 -25 10 -25 11 23z m-465 -11 c7 -8 7 -18 2 -27 -8 -13 -11
-13 -26 2 -9 9 -13 21 -10 27 9 15 21 14 34 -2z m1722 -7 c0 -11 -7 -20 -15
-20 -17 0 -18 2 -9 24 9 23 24 20 24 -4z m948 -20 c0 -22 3 -44 7 -49 3 -6 -4
-15 -15 -21 -16 -9 -22 -8 -26 5 -3 8 -16 15 -28 15 -11 0 -28 5 -36 10 -11 7
-5 10 23 10 28 0 37 4 37 17 0 13 26 53 35 53 2 0 3 -18 3 -40z m-2538 20 c0
-5 -12 -10 -27 -10 -22 0 -25 2 -13 10 20 13 40 13 40 0z m450 -20 c0 -16 -4
-30 -10 -30 -5 0 -10 14 -10 30 0 17 5 30 10 30 6 0 10 -13 10 -30z m-2680 10
c0 -5 -9 -10 -20 -10 -11 0 -20 5 -20 10 0 6 9 10 20 10 11 0 20 -4 20 -10z
m2905 -11 c-4 -5 -13 -9 -22 -9 -13 0 -13 3 -3 15 13 15 35 11 25 -6z m-1645
-12 c0 -8 -10 -21 -22 -30 -13 -8 -20 -18 -16 -22 4 -4 14 -2 23 5 20 17 29 7
21 -25 -6 -25 -7 -25 -106 -24 -96 2 -100 2 -100 24 0 28 32 65 56 65 11 0 24
4 31 8 6 4 34 8 62 10 39 2 51 0 51 -11z m510 -7 c0 -11 -7 -20 -15 -20 -17 0
-18 2 -9 24 9 23 24 20 24 -4z m545 -40 c0 -49 2 -55 23 -58 14 -2 22 -10 22
-23 0 -15 -7 -19 -34 -19 -21 0 -36 6 -40 15 -3 8 -12 12 -21 9 -8 -3 -15 -1
-15 6 0 6 4 9 9 5 13 -8 24 30 23 82 -1 37 2 44 16 41 14 -3 17 -14 17 -58z
m993 35 c-3 -3 -9 2 -12 12 -6 14 -5 15 5 6 7 -7 10 -15 7 -18z m102 15 c0 -5
-4 -10 -10 -10 -5 0 -10 5 -10 10 0 6 5 10 10 10 6 0 10 -4 10 -10z m1695 0
c3 -5 1 -10 -4 -10 -6 0 -11 5 -11 10 0 6 2 10 4 10 3 0 8 -4 11 -10z m-4147
-58 c2 -40 0 -52 -11 -52 -11 0 -16 15 -19 48 -5 52 -2 65 15 59 7 -2 13 -27
15 -55z m67 0 c4 -50 2 -53 -17 -50 -18 3 -22 11 -26 56 -3 50 -2 53 18 50 19
-3 22 -11 25 -56z m593 -18 c-3 -2 -15 -5 -29 -6 -18 -2 -25 2 -27 20 -3 16 2
22 16 22 11 0 23 9 27 23 7 19 9 17 12 -17 2 -21 3 -40 1 -42z m622 66 c0 -5
-7 -10 -16 -10 -8 0 -12 5 -9 10 3 6 10 10 16 10 5 0 9 -4 9 -10z m1505 -1
c-7 -11 -105 -12 -105 -1 0 4 25 8 55 9 33 1 53 -2 50 -8z m80 1 c-3 -5 -15
-10 -26 -10 -10 0 -19 5 -19 10 0 6 12 10 26 10 14 0 23 -4 19 -10z m2475 -16
c0 -16 -2 -16 -24 -8 -12 5 -13 9 -3 19 14 15 27 10 27 -11z m-5969 -45 c-4
-92 -40 -93 -49 -1 -4 43 -2 51 14 55 34 8 38 2 35 -54z m317 30 c-4 -25 0
-33 23 -45 15 -8 37 -14 49 -14 11 0 20 -4 20 -9 0 -10 -136 -20 -150 -11 -4
3 -5 29 -3 58 5 50 7 52 35 52 28 0 30 -2 26 -31z m1377 21 c3 -5 -1 -10 -10
-10 -9 0 -13 5 -10 10 3 6 8 10 10 10 2 0 7 -4 10 -10z m-1932 -8 c3 -4 -1
-24 -8 -46 -7 -21 -11 -44 -9 -51 7 -17 -88 -28 -98 -12 -10 15 -10 101 -1
110 9 10 111 9 116 -1z m1677 -33 c0 -24 -23 -21 -28 4 -2 10 3 17 12 17 10 0
16 -9 16 -21z m410 11 c0 -5 -7 -10 -15 -10 -8 0 -15 5 -15 10 0 6 7 10 15 10
8 0 15 -4 15 -10z m2887 -22 c-3 -7 -5 -2 -5 12 0 14 2 19 5 13 2 -7 2 -19 0
-25z m4945 -9 c-3 -30 -6 -32 -31 -24 -14 4 -19 13 -17 33 2 15 4 28 5 29 0 1
11 -2 24 -6 15 -6 21 -16 19 -32z m-10082 -19 c0 -22 -4 -40 -10 -40 -5 0 -10
9 -10 21 0 11 -5 29 -10 40 -9 16 -7 19 10 19 17 0 20 -6 20 -40z m3840 25 c0
-8 -7 -15 -15 -15 -8 0 -15 7 -15 15 0 8 7 15 15 15 8 0 15 -7 15 -15z m2520
11 c0 -9 -30 -14 -35 -6 -4 6 3 10 14 10 12 0 21 -2 21 -4z m-3555 -44 c4 -25
2 -32 -11 -32 -12 0 -15 6 -10 23 3 12 6 28 6 36 0 23 9 8 15 -27z m1295 23
c0 -8 -4 -15 -10 -15 -5 0 -10 7 -10 15 0 8 5 15 10 15 6 0 10 -7 10 -15z
m263 -1 c3 -4 2 -15 -4 -25 -9 -17 -5 -19 41 -19 47 0 51 -2 48 -22 -2 -14
-13 -25 -28 -29 -20 -6 -17 -7 18 -8 44 -1 57 -15 22 -24 -15 -4 -20 -14 -20
-41 0 -38 -10 -45 -30 -21 -14 17 -40 20 -40 5 0 -5 12 -16 28 -24 19 -11 22
-15 10 -16 -10 0 -32 9 -50 20 -18 11 -42 20 -53 20 -18 0 -18 2 5 21 l25 20
-55 -5 c-50 -5 -52 -3 -11 10 9 3 7 9 -9 22 -19 15 -21 23 -14 70 l7 52 52 0
c28 0 55 -3 58 -6z m7207 -14 c0 -11 5 -20 11 -20 6 0 9 -10 7 -22 -2 -17 -9
-22 -23 -20 -31 6 -36 16 -24 50 12 36 29 43 29 12z m-11670 2 c0 -13 -12 -22
-22 -16 -10 6 -1 24 13 24 5 0 9 -4 9 -8z m10677 -5 c2 -2 5 -18 6 -34 l2 -30
135 -7 c74 -3 295 -11 490 -17 195 -6 363 -15 372 -20 10 -5 18 -16 18 -23 0
-8 7 -16 15 -20 10 -4 15 -20 15 -51 0 -25 -3 -45 -7 -45 -5 0 -43 8 -85 19
-60 14 -84 25 -107 50 -34 36 -71 42 -71 11 0 -11 -3 -20 -7 -20 -5 0 -89 18
-188 39 -172 38 -194 40 -470 52 -159 7 -309 11 -332 10 -34 -1 -43 2 -43 14
0 13 9 16 38 14 76 -4 120 1 125 15 5 11 -10 16 -71 21 -91 8 -105 11 -97 25
6 10 252 7 262 -3z m-8886 -33 c12 -23 11 -28 -6 -41 -14 -11 -16 -17 -8 -20
17 -6 -2 -43 -22 -43 -20 0 -26 14 -19 48 5 22 10 29 21 25 13 -5 15 0 11 25
-6 39 4 41 23 6z m2529 16 c0 -5 -7 -10 -15 -10 -8 0 -15 5 -15 10 0 6 7 10
15 10 8 0 15 -4 15 -10z m-2890 -10 c0 -5 -15 -27 -33 -47 -19 -21 -37 -46
-40 -55 -4 -10 -16 -18 -27 -18 -15 0 -20 7 -20 29 0 16 4 41 10 55 7 19 6 26
-3 26 -8 0 -7 4 3 10 20 13 110 13 110 0z m310 -5 c0 -8 -9 -15 -20 -15 -20 0
-26 11 -13 23 12 13 33 7 33 -8z m8439 8 c0 -5 -7 -24 -14 -43 -13 -33 -14
-33 -21 -12 -3 12 -14 22 -25 22 -24 0 -24 9 -1 26 18 14 62 19 61 7z m-10141
-15 c-6 -18 -28 -21 -28 -4 0 9 7 16 16 16 9 0 14 -5 12 -12z m1090 -80 l-3
-93 -34 -3 -34 -3 7 70 c7 83 22 121 48 121 17 0 19 -8 16 -92z m74 67 c-1
-11 -6 -51 -10 -89 -4 -41 -12 -71 -19 -74 -10 -3 -13 20 -13 93 0 94 0 96 23
93 15 -2 21 -9 19 -23z m738 15 c0 -5 -4 -10 -10 -10 -5 0 -10 5 -10 10 0 6 5
10 10 10 6 0 10 -4 10 -10z m-1030 -16 c0 -13 -24 -129 -35 -170 -3 -11 -201
-31 -211 -22 -2 3 3 28 12 57 8 29 13 60 10 68 -8 20 11 43 34 43 10 0 20 9
23 20 5 18 14 20 86 20 68 0 81 -3 81 -16z m102 -64 c-3 -74 -16 -115 -33
-105 -13 9 -11 142 3 165 23 36 33 15 30 -60z m-518 -32 c-4 -57 -8 -105 -10
-107 -8 -9 -104 -11 -104 -2 0 5 15 36 34 69 19 33 37 75 41 94 9 42 13 48 31
48 13 0 14 -15 8 -102z m1386 82 c0 -11 -4 -20 -10 -20 -5 0 -10 9 -10 20 0
11 5 20 10 20 6 0 10 -9 10 -20z m2450 6 c0 -21 -11 -46 -20 -46 -4 0 -13 14
-19 30 -9 28 -8 30 15 30 14 0 24 -6 24 -14z m830 4 c0 -5 -5 -10 -11 -10 -5
0 -7 5 -4 10 3 6 8 10 11 10 2 0 4 -4 4 -10z m5180 -11 c0 -5 -11 -9 -25 -9
-26 0 -34 15 -12 23 16 5 37 -3 37 -14z m-10080 1 c0 -5 -5 -20 -11 -34 -9
-19 -9 -36 1 -71 12 -42 11 -49 -7 -73 -16 -21 -28 -27 -59 -27 l-39 0 4 100
c1 55 5 103 8 108 6 11 103 9 103 -3z m370 -89 c0 -72 -3 -90 -16 -95 -22 -9
-94 -7 -94 2 0 21 50 146 65 162 36 40 45 26 45 -69z m863 69 c3 -11 1 -23 -4
-26 -5 -3 -9 6 -9 20 0 31 6 34 13 6z m-1386 -5 c0 -8 -4 -15 -9 -15 -4 0 -8
7 -8 15 0 8 4 15 8 15 5 0 9 -7 9 -15z m5163 1 c0 -2 -11 -6 -25 -8 -14 -3
-25 -1 -25 3 0 5 11 9 25 9 14 0 25 -2 25 -4z m-422 -15 l92 -1 0 -44 c0 -25
-4 -48 -10 -51 -5 -3 -10 2 -10 12 0 19 -18 43 -32 43 -4 0 -8 -9 -8 -20 0
-28 -11 -25 -45 10 -28 29 -32 30 -102 26 -41 -2 -76 1 -79 6 -4 5 -17 7 -30
4 -17 -5 -22 -3 -19 7 4 9 27 12 78 10 39 -1 114 -2 165 -2z m5302 -28 c0 -10
-6 -13 -16 -9 -9 3 -24 6 -35 6 -24 0 -25 17 -1 22 27 6 52 -3 52 -19z m-8304
-10 c-10 -10 -19 5 -10 18 6 11 8 11 12 0 2 -7 1 -15 -2 -18z m-442 -9 c38
-14 0 -53 -51 -54 -41 0 -41 9 0 37 39 26 32 24 51 17z m111 -29 c0 -11 -9
-19 -22 -21 -26 -4 -27 -1 -12 27 12 24 34 20 34 -6z m245 9 c0 -10 -8 -15
-22 -13 -13 1 -31 -1 -40 -6 -22 -9 -48 0 -48 16 0 7 10 9 30 6 16 -4 32 -2
35 3 10 16 45 11 45 -6z m118 4 c-3 -7 -13 -15 -24 -17 -16 -3 -17 -1 -5 13
16 19 34 21 29 4z m11190 0 c7 -7 12 -21 12 -32 0 -18 -1 -19 -20 -1 -20 18
-27 45 -12 45 4 0 13 -5 20 -12z m-7398 -8 c0 -5 -2 -10 -4 -10 -3 0 -8 5 -11
10 -3 6 -1 10 4 10 6 0 11 -4 11 -10z m4890 0 c0 -5 -7 -7 -15 -4 -8 4 -15 8
-15 10 0 2 7 4 15 4 8 0 15 -4 15 -10z m1280 -45 c24 -24 41 -47 38 -50 -3 -3
-23 -2 -44 3 -33 7 -41 13 -50 42 -21 64 -4 66 56 5z m-11724 -16 c-4 -39 -21
-58 -38 -41 -9 9 -8 20 5 47 20 41 38 38 33 -6z m1161 35 c-3 -3 -12 -4 -19
-1 -8 3 -5 6 6 6 11 1 17 -2 13 -5z m3553 -4 c0 -5 -4 -10 -10 -10 -5 0 -10 5
-10 10 0 6 5 10 10 10 6 0 10 -4 10 -10z m-2219 -31 c-16 -15 -26 -18 -33 -11
-15 15 0 32 29 32 l27 0 -23 -21z m-431 -9 c10 -7 -19 -9 -90 -8 -80 1 -94 3
-60 8 69 11 133 11 150 0z m3866 -79 c-10 -16 -23 -14 -30 5 -9 25 4 38 21 21
9 -8 12 -20 9 -26z m-3566 4 c0 -18 -56 -74 -98 -98 l-32 -18 0 24 c0 23 31
57 80 90 32 20 50 21 50 2z m-140 -43 c0 -5 -18 -25 -41 -45 -30 -27 -50 -37
-75 -37 -19 0 -34 3 -34 8 0 11 30 55 48 70 18 13 102 17 102 4z m3137 -120
c14 -9 20 -151 9 -202 -11 -45 -19 -50 -88 -50 -48 0 -58 -3 -59 -17 0 -13 -4
-10 -12 8 -7 14 -17 32 -23 40 -16 19 -14 97 2 103 7 3 18 24 25 48 7 24 18
50 25 58 14 16 101 25 121 12z m-1137 -172 c0 -11 -4 -20 -9 -20 -11 0 -22 26
-14 34 12 12 23 5 23 -14z m1037 -106 c-3 -3 -12 -4 -19 -1 -8 3 -5 6 6 6 11
1 17 -2 13 -5z m50 0 c-3 -3 -12 -4 -19 -1 -8 3 -5 6 6 6 11 1 17 -2 13 -5z
m182 -30 c2 -2 -2 -11 -10 -20 -12 -15 -29 -16 -133 -10 -66 3 -121 8 -123 10
-2 2 -1 11 3 20 6 16 19 17 133 10 69 -3 128 -8 130 -10z m-214 -64 c-3 -5
-12 -10 -19 -10 -7 0 -34 -11 -59 -24 -25 -14 -56 -25 -69 -25 -55 1 -128 11
-128 18 0 5 21 18 48 29 36 17 68 21 140 22 60 0 91 -4 87 -10z m-2725 -270
c0 -5 -4 -10 -10 -10 -5 0 -10 5 -10 10 0 6 5 10 10 10 6 0 10 -4 10 -10z
m-820 -15 c0 -18 -31 -35 -62 -35 -23 1 -23 1 5 25 31 28 57 32 57 10z m1365
-515 c-3 -5 -10 -10 -16 -10 -5 0 -9 5 -9 10 0 6 7 10 16 10 8 0 12 -4 9 -10z
m-625 -173 c-1 -21 -1 -21 -15 -3 -8 10 -12 23 -9 28 9 14 24 -2 24 -25z m605
-47 c3 -6 -1 -7 -9 -4 -18 7 -21 14 -7 14 6 0 13 -4 16 -10z m600 -100 c3 -5
-1 -10 -9 -10 -8 0 -18 5 -21 10 -3 6 1 10 9 10 8 0 18 -4 21 -10z m470 -10
c-3 -4 -13 -10 -24 -13 -17 -4 -18 -2 -9 13 7 10 17 16 25 13 7 -3 11 -9 8
-13z m-125 -30 c0 -5 -10 -15 -22 -21 l-23 -12 20 21 c23 24 25 25 25 12z
m-2150 -316 c0 -16 -27 -18 -50 -4 -12 7 -10 11 10 18 29 11 40 7 40 -14z
m-208 -16 c-7 -7 -12 -8 -12 -2 0 6 3 14 7 17 3 4 9 5 12 2 2 -3 -1 -11 -7
-17z m2123 6 c-30 -24 -125 -67 -133 -60 -10 11 21 34 73 54 64 25 88 27 60 6z
m3815 -90 c0 -14 -4 -23 -10 -19 -5 3 -10 15 -10 26 0 10 5 19 10 19 6 0 10
-12 10 -26z m-7650 -262 c0 -10 -60 -35 -67 -29 -8 9 7 28 31 37 21 8 36 5 36
-8z"/>
<path d="M3068 5053 c-21 -5 -24 -33 -4 -33 16 0 40 27 29 32 -4 3 -16 3 -25
1z"/>
<path d="M5142 5028 c3 -7 22 -14 42 -16 25 -2 36 0 31 7 -3 6 -17 8 -31 5
-14 -4 -24 -2 -24 5 0 6 -5 11 -11 11 -6 0 -9 -6 -7 -12z"/>
<path d="M3817 5923 c-4 -3 -7 -16 -6 -27 0 -19 1 -19 10 3 10 24 8 36 -4 24z"/>
<path d="M4008 5013 c6 -2 18 -2 25 0 6 3 1 5 -13 5 -14 0 -19 -2 -12 -5z"/>
<path d="M4170 4970 c0 -5 16 -10 35 -10 19 0 35 5 35 10 0 6 -16 10 -35 10
-19 0 -35 -4 -35 -10z"/>
<path d="M1462 4905 c2 -14 8 -26 13 -26 6 0 11 12 13 26 2 18 -1 25 -13 25
-12 0 -15 -7 -13 -25z"/>
<path d="M6845 6320 c-3 -5 1 -10 9 -10 8 0 18 5 21 10 3 6 -1 10 -9 10 -8 0
-18 -4 -21 -10z"/>
<path d="M6872 6289 c-13 -5 -22 -15 -19 -21 5 -15 50 -12 80 4 16 8 17 12 6
19 -17 11 -37 10 -67 -2z"/>
<path d="M6866 6180 c-3 -18 -1 -39 5 -48 8 -14 9 -13 5 7 -3 14 0 31 6 38 8
10 8 17 1 24 -7 7 -12 0 -17 -21z"/>
<path d="M646 6021 c-3 -5 1 -14 9 -21 8 -7 15 -19 15 -26 0 -16 18 -18 39 -5
24 15 -2 61 -33 61 -14 0 -27 -4 -30 -9z"/>
<path d="M6872 5753 c-1 -122 1 -224 6 -226 4 -3 6 72 4 166 -4 275 -8 299
-10 60z"/>
<path d="M1105 5710 c-5 -8 -1 -16 9 -22 9 -5 14 -13 11 -18 -3 -5 -1 -11 4
-14 18 -11 19 21 1 43 -13 18 -19 20 -25 11z"/>
<path d="M922 5358 c-33 -157 -40 -218 -22 -186 9 15 44 196 57 296 11 84 -3
39 -35 -110z"/>
<path d="M10258 5473 c-47 -7 -33 -28 19 -28 37 0 48 4 51 18 4 18 -8 19 -70
10z"/>
<path d="M10244 5414 c3 -9 6 -20 6 -25 0 -5 16 -9 35 -9 31 0 35 3 35 25 0
23 -4 25 -41 25 -33 0 -40 -3 -35 -16z"/>
<path d="M10251 5341 c-9 -16 -7 -19 17 -23 15 -2 38 -1 52 3 21 6 19 7 -13 8
-21 1 -36 5 -32 10 3 5 1 12 -4 16 -6 3 -15 -3 -20 -14z"/>
<path d="M5742 5297 c-27 -15 -62 -69 -62 -95 0 -10 -4 -22 -10 -28 -6 -6 6
-18 35 -33 25 -13 45 -29 45 -36 0 -7 7 -18 15 -25 8 -7 15 -21 15 -31 0 -21
36 -27 42 -7 3 7 5 -9 6 -36 1 -26 6 -55 11 -65 5 -9 6 -23 2 -30 -7 -10 -14
-10 -39 3 -32 17 -47 10 -31 -14 7 -13 10 -13 18 -2 7 11 12 10 27 -5 11 -11
39 -25 64 -32 25 -7 54 -15 65 -18 20 -6 20 -5 1 15 -16 18 -17 24 -5 38 11
14 11 18 -4 29 -14 10 -15 14 -5 18 9 3 5 13 -14 31 -32 31 -36 70 -10 99 17
19 16 19 -15 13 -29 -7 -31 -6 -26 16 4 13 11 26 16 29 17 12 -4 31 -28 26
-23 -4 -23 -3 -7 22 9 14 21 29 27 34 6 5 2 14 -12 26 -13 11 -23 23 -23 28 0
7 -31 25 -65 38 -5 3 -20 -1 -33 -8z m98 -166 c0 -6 -4 -13 -10 -16 -5 -3 -10
1 -10 9 0 9 5 16 10 16 6 0 10 -4 10 -9z"/>
<path d="M10077 5183 c-14 -13 -7 -53 9 -53 22 0 47 28 40 45 -5 15 -37 20
-49 8z"/>
<path d="M6470 5137 c-19 -24 -25 -43 -25 -79 0 -50 14 -59 26 -17 4 13 8 20
9 14 2 -5 6 17 10 50 3 33 6 61 6 61 -1 1 -12 -12 -26 -29z"/>
<path d="M7000 5101 c0 -22 5 -31 16 -31 14 0 15 -8 9 -47 -4 -27 -13 -55 -21
-64 -8 -9 -14 -22 -12 -29 2 -7 -16 -23 -40 -36 -41 -22 -42 -24 -20 -29 13
-3 55 -5 93 -3 59 3 70 6 73 22 2 10 -3 23 -12 28 -17 10 -22 38 -6 38 5 0 14
9 21 21 9 18 6 26 -19 53 -20 20 -32 44 -34 66 -2 27 -8 36 -25 38 -20 3 -23
-1 -23 -27z"/>
<path d="M5570 5113 c-21 -8 -50 -34 -50 -46 0 -5 7 -4 15 3 21 18 24 10 8
-20 -7 -14 -13 -21 -13 -16 0 5 -7 3 -15 -4 -9 -7 -14 -20 -11 -29 2 -9 7 -28
10 -43 4 -19 13 -28 26 -28 11 0 20 -6 21 -12 0 -7 5 1 10 18 5 18 17 34 28
37 13 3 20 16 23 41 4 38 -12 63 -33 51 -7 -5 -10 -1 -7 11 2 11 11 18 21 16
21 -4 22 14 1 22 -9 3 -16 6 -17 5 -1 0 -9 -3 -17 -6z m-20 -139 c0 -8 -4 -12
-10 -9 -5 3 -10 13 -10 21 0 8 5 12 10 9 6 -3 10 -13 10 -21z"/>
<path d="M9601 5088 c1 -17 3 -18 6 -6 3 11 10 15 20 11 11 -4 14 -2 9 5 -13
21 -36 13 -35 -10z"/>
<path d="M9856 5088 c-9 -36 -7 -48 8 -42 9 3 14 18 14 35 -1 34 -13 38 -22 7z"/>
<path d="M585 5090 c-3 -5 -1 -10 4 -10 6 0 11 5 11 10 0 6 -2 10 -4 10 -3 0
-8 -4 -11 -10z"/>
<path d="M2220 5090 c-19 -4 -29 -8 -22 -9 7 0 10 -5 7 -11 -3 -5 3 -10 15
-10 12 0 18 5 15 10 -4 6 7 10 24 10 17 0 31 5 31 10 0 11 -17 11 -70 0z"/>
<path d="M6925 5067 c-4 -10 -5 -21 -1 -24 10 -10 18 4 13 24 -4 17 -4 17 -12
0z"/>
<path d="M10956 5065 c4 -8 8 -15 10 -15 2 0 4 7 4 15 0 8 -4 15 -10 15 -5 0
-7 -7 -4 -15z"/>
<path d="M7380 5065 c0 -6 -16 -11 -35 -11 -23 0 -42 -7 -55 -22 l-20 -22 250
1 c157 0 250 4 250 10 0 6 -4 7 -10 4 -5 -3 -10 0 -10 8 0 12 -11 14 -59 10
-33 -3 -73 -1 -92 6 -20 7 -35 8 -39 2 -9 -15 -161 -5 -171 11 -5 7 -9 8 -9 3z"/>
<path d="M8086 5046 c6 -23 5 -24 -54 -19 -37 3 -62 1 -66 -6 -5 -7 9 -11 43
-11 55 0 67 -16 36 -46 -30 -30 -10 -55 49 -61 l46 -6 0 37 c0 35 13 48 24 24
3 -7 3 -2 0 12 -3 14 -17 35 -30 48 -13 13 -24 29 -24 37 0 8 -7 15 -15 15
-11 0 -14 -7 -9 -24z m19 -86 c3 -6 -1 -7 -9 -4 -18 7 -21 14 -7 14 6 0 13 -4
16 -10z"/>
<path d="M9616 5061 c-4 -7 -5 -15 -2 -18 9 -9 19 4 14 18 -4 11 -6 11 -12 0z"/>
<path d="M13919 5059 c19 -7 22 -15 18 -36 -7 -38 9 -63 40 -63 23 0 25 3 19
33 -7 38 -48 77 -79 76 -22 0 -22 0 2 -10z"/>
<path d="M6104 5034 c3 -7 -4 -16 -15 -19 -10 -4 -19 -15 -19 -25 0 -12 -8
-20 -22 -22 -13 -2 -24 -11 -26 -20 -4 -21 56 -80 71 -71 6 4 0 11 -14 16 -35
14 -5 21 33 8 38 -13 66 2 47 25 -6 8 -17 14 -24 14 -22 0 -24 26 -4 43 10 9
19 24 19 32 0 8 1 18 3 23 1 4 -11 7 -26 8 -19 1 -26 -3 -23 -12z"/>
<path d="M9570 5030 c0 -15 7 -20 25 -20 14 0 25 2 25 4 0 2 -11 11 -25 20
-24 16 -25 16 -25 -4z"/>
<path d="M10150 5035 c0 -8 5 -15 10 -15 6 0 10 7 10 15 0 8 -4 15 -10 15 -5
0 -10 -7 -10 -15z"/>
<path d="M9256 5033 c-11 -11 -6 -23 9 -23 8 0 15 4 15 9 0 13 -16 22 -24 14z"/>
<path d="M9500 5025 c-10 -13 -9 -15 9 -15 11 0 21 4 21 9 0 18 -18 21 -30 6z"/>
<path d="M11081 5024 c0 -11 3 -14 6 -6 3 7 2 16 -1 19 -3 4 -6 -2 -5 -13z"/>
<path d="M12626 5024 c-8 -22 1 -31 16 -16 9 9 9 15 1 23 -7 7 -12 5 -17 -7z"/>
<path d="M6481 5014 c0 -11 3 -14 6 -6 3 7 2 16 -1 19 -3 4 -6 -2 -5 -13z"/>
<path d="M7795 5020 c-3 -5 1 -10 9 -10 9 0 16 5 16 10 0 6 -4 10 -9 10 -6 0
-13 -4 -16 -10z"/>
<path d="M11460 5019 c0 -5 5 -7 10 -4 6 3 10 8 10 11 0 2 -4 4 -10 4 -5 0
-10 -5 -10 -11z"/>
<path d="M12500 5016 c0 -9 5 -16 10 -16 6 0 10 4 10 9 0 6 -4 13 -10 16 -5 3
-10 -1 -10 -9z"/>
<path d="M13403 5005 c0 -19 5 -25 21 -25 15 0 17 3 8 8 -7 5 -10 16 -6 25 4
11 1 17 -9 17 -9 0 -14 -10 -14 -25z"/>
<path d="M13850 5020 c0 -5 10 -10 23 -10 18 0 19 2 7 10 -19 13 -30 13 -30 0z"/>
<path d="M8740 5005 c0 -10 -11 -26 -24 -36 -14 -11 -32 -33 -40 -50 -18 -37
-10 -42 59 -37 43 3 49 6 58 31 7 21 5 32 -6 45 -8 9 -17 26 -18 36 -5 24 -29
33 -29 11z m-30 -91 c0 -8 -4 -12 -10 -9 -5 3 -10 10 -10 16 0 5 5 9 10 9 6 0
10 -7 10 -16z"/>
<path d="M9638 5013 c7 -3 16 -2 19 1 4 3 -2 6 -13 5 -11 0 -14 -3 -6 -6z"/>
<path d="M11120 4997 c0 -7 -9 -18 -20 -25 -36 -22 -24 -35 30 -30 27 3 53 1
59 -5 5 -5 17 -7 25 -4 14 6 13 10 -6 32 -12 14 -30 25 -39 25 -10 0 -21 5
-24 10 -9 14 -25 12 -25 -3z"/>
<path d="M5766 4985 c-3 -9 -6 -22 -5 -28 0 -7 5 -1 10 12 5 13 8 26 5 28 -2
2 -6 -3 -10 -12z"/>
<path d="M8880 4982 c0 -10 -5 -23 -10 -28 -6 -6 -7 -25 -4 -42 6 -28 11 -32
38 -32 32 0 32 1 26 38 -11 58 -21 82 -36 82 -8 0 -14 -8 -14 -18z"/>
<path d="M7833 4968 c2 -7 0 -21 -5 -31 -16 -30 17 -46 92 -46 36 1 76 5 90 9
23 7 21 10 -10 14 -5 0 -19 9 -31 20 -45 38 -147 64 -136 34z"/>
<path d="M8585 4950 c-4 -6 -4 -14 -1 -19 3 -5 -1 -14 -9 -21 -22 -18 -18 -25
13 -28 26 -2 28 1 28 33 0 33 -19 54 -31 35z"/>
<path d="M7153 4923 c-27 -4 -33 -9 -33 -29 0 -24 1 -25 72 -22 57 2 73 6 76
19 2 11 -10 19 -36 27 -22 7 -41 11 -43 10 -2 0 -19 -3 -36 -5z"/>
<path d="M8970 4879 c0 -5 5 -7 10 -4 6 3 10 8 10 11 0 2 -4 4 -10 4 -5 0 -10
-5 -10 -11z"/>
<path d="M13025 4740 c3 -5 12 -7 20 -3 21 7 19 13 -6 13 -11 0 -18 -4 -14
-10z"/>
<path d="M9955 4660 c3 -5 16 -10 28 -9 21 0 21 1 2 9 -28 12 -37 12 -30 0z"/>
<path d="M1 4554 c0 -58 3 -74 15 -74 8 0 14 -5 14 -11 0 -16 72 -6 83 12 5 9
7 29 3 44 -8 32 -64 89 -95 98 -19 5 -20 0 -20 -69z"/>
<path d="M13068 4563 c6 -2 18 -2 25 0 6 3 1 5 -13 5 -14 0 -19 -2 -12 -5z"/>
<path d="M12005 4413 c-205 -8 -418 -39 -479 -70 -24 -12 -27 -19 -23 -43 5
-24 2 -30 -21 -39 -88 -36 -519 -55 -1092 -48 -984 12 -1638 -43 -1843 -156
-73 -40 -90 -68 -20 -33 27 14 71 30 97 36 52 12 128 4 104 -11 -11 -7 -11 -9
1 -9 22 0 116 -103 113 -122 -3 -16 18 -24 50 -19 7 1 63 -87 63 -99 0 -3 34
-50 75 -105 78 -104 290 -329 357 -378 107 -79 257 -168 428 -252 253 -126
444 -189 528 -175 20 4 37 3 37 -2 0 -4 19 -8 43 -9 34 -1 37 -2 17 -8 -23 -7
-22 -8 15 -15 22 -4 60 -9 85 -12 44 -5 44 -5 23 11 -13 9 -23 20 -23 25 0 13
236 -5 245 -19 2 -5 16 -6 30 -3 15 2 25 0 25 -7 0 -6 -10 -11 -22 -11 -12 0
-19 -2 -17 -4 11 -9 264 14 344 32 125 27 179 54 250 126 84 84 130 180 144
301 11 92 9 341 -4 407 -6 31 -4 38 15 48 18 10 26 8 43 -7 28 -24 85 -63 91
-63 3 0 -9 21 -26 47 -17 25 -33 56 -34 67 -7 57 -15 81 -42 139 -51 108 -72
171 -72 217 l1 45 18 -50 c84 -234 190 -402 367 -585 53 -56 103 -118 119
-150 30 -59 25 -59 -42 4 -18 16 -33 27 -33 23 0 -30 57 -107 142 -189 106
-105 175 -153 202 -142 9 4 35 -1 57 -11 46 -21 62 -13 31 15 -12 12 -22 26
-22 33 0 7 -18 31 -40 55 -21 23 -34 42 -28 42 6 0 88 -38 182 -84 344 -168
620 -244 1116 -306 91 -11 215 -27 275 -35 61 -8 118 -15 128 -15 16 0 17 44
17 779 l0 779 -92 6 c-415 27 -1639 59 -1903 49z m-721 -229 c13 -5 14 -9 5
-20 -10 -13 -39 -20 -39 -10 0 8 12 36 15 36 2 0 11 -3 19 -6z"/>
<path d="M3160 4229 c0 -15 100 -56 156 -63 45 -6 44 -5 -19 12 -37 10 -81 28
-97 40 -33 25 -40 27 -40 11z"/>
<path d="M0 2969 c0 -5 5 -7 10 -4 5 3 10 8 10 11 0 2 -4 4 -10 4 -5 0 -10 -5
-10 -11z"/>
<path d="M10328 2873 c6 -2 18 -2 25 0 6 3 1 5 -13 5 -14 0 -19 -2 -12 -5z"/>
<path d="M3070 2833 c1 -5 7 -19 15 -33 14 -25 14 -25 15 -2 0 14 6 22 18 23
14 0 14 2 -3 9 -26 11 -45 12 -45 3z"/>
<path d="M2144 2703 c-3 -10 -10 -29 -15 -42 -11 -27 -5 -38 13 -23 7 5 26 12
43 14 18 2 31 10 33 20 2 12 -2 15 -16 11 -14 -3 -21 2 -25 16 -6 26 -26 27
-33 4z"/>
<path d="M5498 2603 c7 -3 16 -2 19 1 4 3 -2 6 -13 5 -11 0 -14 -3 -6 -6z"/>
<path d="M7978 2464 c4 -40 7 -45 26 -42 15 2 20 9 19 26 -2 16 2 22 17 22 33
0 22 18 -17 29 -21 6 -40 11 -43 11 -3 0 -4 -21 -2 -46z"/>
<path d="M1868 2463 c-22 -6 -33 -40 -18 -58 7 -8 25 -15 41 -15 27 0 29 2 23
28 -12 56 -10 55 -46 45z"/>
<path d="M1770 2408 c0 -15 21 -18 35 -5 12 13 11 15 -10 13 -14 0 -25 -4 -25
-8z"/>
<path d="M6560 2061 c-7 -15 -7 -21 0 -21 12 0 25 28 17 36 -3 3 -10 -4 -17
-15z"/>
<path d="M3092 1840 c0 -14 2 -19 5 -12 2 6 2 18 0 25 -3 6 -5 1 -5 -13z"/>
<path d="M1110 1620 c0 -5 5 -10 10 -10 6 0 10 5 10 10 0 6 -4 10 -10 10 -5 0
-10 -4 -10 -10z"/>
<path d="M2940 168 c0 -15 5 -30 10 -33 13 -8 13 25 0 45 -8 12 -10 9 -10 -12z"/>
</g>
</svg>
