<svg version="1.1" id="Layer_1" xmlns="http://www.w3.org/2000/svg" xmlns:xlink="http://www.w3.org/1999/xlink" x="0px" y="0px"
	 width="100%" viewBox="0 0 512 368" enable-background="new 0 0 512 368" xml:space="preserve">
<path fill="#000000" opacity="1.000000" stroke="none" 
	d="
M67.999962,212.285309 
	C58.337296,212.280167 49.172409,212.156403 40.013107,212.329010 
	C36.500919,212.395203 35.407112,211.152695 35.473068,207.680023 
	C35.668919,197.369125 35.453583,187.050995 35.589798,176.738190 
	C35.705894,167.948639 40.879543,162.055847 49.512238,160.565704 
	C51.309139,160.255539 53.144363,160.006500 54.962349,160.003677 
	C80.617744,159.963959 106.273247,159.949890 131.928558,160.007126 
	C134.114273,160.012009 137.296143,159.139999 137.951263,162.061676 
	C138.736038,165.561661 139.160843,169.475922 137.568741,172.848572 
	C136.641388,174.813034 133.970474,174.114594 132.022934,174.117493 
	C106.367546,174.155609 80.712097,174.151016 55.056664,174.170105 
	C52.005276,174.172379 48.842930,174.126404 49.596542,178.710754 
	C51.775070,179.833588 53.774826,179.026367 55.716118,179.029053 
	C81.204857,179.064301 106.693680,179.029099 132.182404,179.070709 
	C134.254532,179.074097 137.291534,178.464432 137.877838,180.920868 
	C138.745651,184.556808 139.244446,188.641312 137.422272,192.118362 
	C136.447952,193.977524 133.753265,193.182083 131.807083,193.184723 
	C106.984650,193.218323 82.161804,193.148148 57.340141,193.291046 
	C54.559189,193.307053 49.614075,191.529129 49.687225,196.127548 
	C49.763428,200.917496 54.749771,198.496094 57.361828,198.519196 
	C82.182343,198.738831 107.005615,198.638351 131.828094,198.647232 
	C138.339523,198.649567 138.057419,198.691360 138.416351,205.833099 
	C138.667480,210.829910 137.110992,212.464493 131.970169,212.399231 
	C110.816360,212.130661 89.657173,212.285675 67.999962,212.285309 
z"/>
<path fill="#000000" opacity="1.000000" stroke="none" 
	d="
M415.884033,181.151917 
	C406.088196,174.592010 396.584351,168.239883 387.100922,161.901398 
	C388.274841,159.326447 390.152954,160.099182 391.656464,159.924744 
	C403.032532,158.604828 413.232330,160.844482 422.238586,168.582428 
	C426.305603,172.076706 430.999420,177.157928 436.028351,176.739243 
	C440.718140,176.348831 445.048096,171.568176 449.523071,168.699219 
	C451.344818,167.531250 453.324188,166.519150 454.901825,165.075485 
	C463.751038,156.977692 474.272552,160.784698 484.150940,160.038162 
	C484.382843,160.562393 484.614746,161.086624 484.846649,161.610855 
	C473.003662,169.592178 461.160706,177.573502 448.409424,186.166962 
	C460.892273,194.537323 472.874542,202.572006 484.856781,210.606674 
	C484.686646,211.167831 484.516479,211.728989 484.346344,212.290146 
	C475.367645,211.131729 466.022064,215.129837 457.377228,208.828506 
	C451.465698,204.519516 445.127594,200.799286 439.151306,196.573822 
	C436.710968,194.848404 434.864777,194.883057 432.472076,196.560364 
	C426.477814,200.762405 420.209015,204.579407 414.294342,208.885971 
	C410.729858,211.481339 407.072754,212.587570 402.696930,212.359329 
	C397.489380,212.087723 392.256866,212.295364 387.035156,212.295364 
	C386.880249,211.781250 386.725342,211.267120 386.570404,210.753006 
	C398.471436,202.759842 410.372437,194.766663 422.467041,186.643448 
	C420.846771,183.803329 418.199463,182.942856 415.884033,181.151917 
z"/>
<path fill="#000000" opacity="1.000000" stroke="none" 
	d="
M357.764099,169.065765 
	C357.764465,167.076645 357.837555,165.573105 357.750641,164.078873 
	C357.591248,161.337891 358.917969,160.061157 361.563934,160.005875 
	C363.395416,159.967590 365.229401,160.016510 367.059509,159.950150 
	C370.224579,159.835419 371.446136,161.249893 371.421692,164.467697 
	C371.311554,178.960602 371.312347,193.455276 371.420013,207.948212 
	C371.444336,211.222122 370.139832,212.316833 366.986481,212.307587 
	C342.663818,212.236328 318.336670,212.533234 294.019653,212.153687 
	C279.355072,211.924805 269.112640,201.127197 268.733795,186.512726 
	C268.548248,179.353851 268.847961,172.181549 268.624512,165.024826 
	C268.507172,161.266754 270.116119,159.880447 273.607269,159.995499 
	C275.271271,160.050369 276.937958,160.035385 278.603394,160.030975 
	C281.336609,160.023743 282.395416,161.387985 282.359802,164.091049 
	C282.272064,170.753571 282.290558,177.418823 282.367004,184.081833 
	C282.479980,193.928085 286.962067,198.553345 296.723785,198.602768 
	C315.382019,198.697250 334.041992,198.533493 352.698914,198.716690 
	C356.690247,198.755859 357.954071,197.439194 357.842438,193.543076 
	C357.613464,185.553055 357.768005,177.552032 357.764099,169.065765 
z"/>
<path fill="#000000" opacity="1.000000" stroke="none" 
	d="
M172.020569,211.411758 
	C159.077545,207.700623 152.481750,199.524490 151.888916,186.297226 
	C151.568390,179.145752 151.923187,171.966415 151.770813,164.803970 
	C151.696426,161.307388 153.312546,159.969345 156.563187,160.012421 
	C158.229004,160.034500 159.896866,160.048782 161.561356,159.993195 
	C164.827133,159.884140 165.919495,161.581299 165.868561,164.655930 
	C165.766479,170.817184 165.964691,176.984283 165.818573,183.143738 
	C165.557526,194.148056 169.826294,198.611664 181.027039,198.627609 
	C203.690796,198.659882 226.354721,198.618912 249.018280,198.693802 
	C251.020813,198.700439 253.974991,197.639816 254.722610,200.324432 
	C255.691879,203.804993 255.817535,207.581573 254.454514,211.097488 
	C253.991394,212.292068 252.511230,212.245758 251.348007,212.245331 
	C226.185364,212.236069 201.022675,212.220642 175.860138,212.159042 
	C174.719513,212.156250 173.579971,211.709488 172.020569,211.411758 
z"/>
</svg>