<svg version="1.1" id="Layer_1" xmlns="http://www.w3.org/2000/svg" xmlns:xlink="http://www.w3.org/1999/xlink" x="0px" y="0px"
	 width="100%" viewBox="0 0 225 225" enable-background="new 0 0 225 225" xml:space="preserve">
<path fill="#FEFEFE" opacity="1.000000" stroke="none" 
	d="
M151.000000,226.000000 
	C100.666672,226.000000 50.833340,226.000000 1.000007,226.000000 
	C1.000005,151.000000 1.000005,76.000015 1.000002,1.000017 
	C75.999992,1.000011 150.999985,1.000011 225.999969,1.000006 
	C225.999985,75.999985 225.999985,150.999969 226.000000,225.999969 
	C201.166672,226.000000 176.333328,226.000000 151.000000,226.000000 
M120.570915,83.119408 
	C118.058952,76.700089 115.379570,74.816513 108.625748,74.738304 
	C106.294403,74.711304 103.730621,75.300598 101.701050,74.509811 
	C99.911461,73.812515 98.718246,71.584610 97.261688,70.032593 
	C98.894035,68.718536 100.502502,66.299881 102.162476,66.264000 
	C116.314240,65.958054 130.478806,65.938324 144.629257,66.270714 
	C146.363586,66.311455 148.037338,68.931473 149.739166,70.356201 
	C148.026794,71.812164 146.523911,73.908287 144.546783,74.555313 
	C142.286911,75.294884 139.602982,74.681633 137.107269,74.768967 
	C130.962311,74.983978 126.420128,79.223518 126.183167,84.887627 
	C125.943314,90.620781 130.557281,95.506187 136.795029,95.924316 
	C139.614471,96.113304 142.573898,95.491684 145.246552,96.147598 
	C147.056595,96.591797 149.439301,98.369743 149.864807,99.996193 
	C150.658661,103.030678 148.178711,104.397926 145.348267,104.483139 
	C141.520630,104.598351 137.686981,104.514496 133.855911,104.514786 
	C126.770317,104.515327 119.684731,104.514946 112.636452,104.514946 
	C112.636452,107.702431 112.636452,110.150185 112.636452,113.014633 
	C123.322731,113.014633 133.774612,113.056999 144.225967,113.001266 
	C152.635513,112.956429 158.525864,107.714516 158.612595,100.341003 
	C158.701462,92.787476 153.173767,87.619400 144.620453,87.320564 
	C142.125229,87.233383 139.605560,87.459137 137.138275,87.178871 
	C136.327591,87.086784 135.646790,85.851143 134.906586,85.138428 
	C135.677155,84.459381 136.402283,83.267593 137.226562,83.194550 
	C140.036423,82.945557 142.888062,83.215218 145.711349,83.060600 
	C152.590744,82.683861 157.777222,77.616776 158.135788,71.077148 
	C158.508835,64.273430 153.788605,58.078598 146.674759,57.874138 
	C131.207565,57.429592 115.710625,57.457005 100.242081,57.882137 
	C93.402054,58.070122 88.659958,64.162491 88.890610,70.720772 
	C89.131912,77.582382 94.334480,82.738701 101.436928,83.065605 
	C103.764008,83.172714 106.137733,82.838310 108.417427,83.184555 
	C109.751511,83.387169 110.942009,84.535149 112.197098,85.257851 
	C110.910027,85.945549 109.632263,87.208679 108.334412,87.229668 
	C98.176392,87.393944 88.012840,87.211105 77.854599,87.368370 
	C73.241600,87.439796 71.720154,85.400665 71.832741,80.989555 
	C72.040932,72.833008 71.888824,64.667358 71.893227,56.505497 
	C71.897057,49.405869 72.402885,48.915417 79.637802,48.916206 
	C90.413811,48.917385 101.189827,48.916512 112.004852,48.916512 
	C112.004852,45.875668 112.004852,43.407558 112.004852,40.514820 
	C110.360771,40.514820 108.888046,40.509468 107.415367,40.515675 
	C96.424141,40.562016 85.420776,40.315842 74.446205,40.768063 
	C67.759819,41.043583 63.481991,46.462574 63.378689,53.845596 
	C63.245876,63.337772 63.274628,72.834923 63.412182,82.327354 
	C63.535049,90.806244 68.693077,95.864609 77.246155,95.942986 
	C87.739098,96.039146 98.234009,96.024246 108.727264,95.947182 
	C116.560944,95.889656 120.423454,91.930534 120.570915,83.119408 
M131.694504,129.961319 
	C131.694504,139.903427 131.694504,149.845551 131.694504,160.064102 
	C136.236771,160.064102 140.421463,159.681808 144.512299,160.139084 
	C154.875153,161.297470 154.956436,154.459244 153.418839,145.785263 
	C153.151718,144.278366 152.950226,142.590347 153.352249,141.164719 
	C154.812225,135.987381 153.671982,128.989441 150.425232,128.684464 
	C144.260376,128.105423 137.971436,128.847763 131.694504,129.961319 
M179.014420,133.082687 
	C177.300125,131.355911 175.611420,128.202927 173.866684,128.171600 
	C168.772034,128.080139 163.642929,129.162460 158.565170,130.011108 
	C158.048996,130.097351 157.467926,131.713135 157.459702,132.624039 
	C157.377762,141.689713 157.410019,150.756424 157.410019,159.767532 
	C159.617905,159.767532 161.351212,159.767532 163.381363,159.767532 
	C163.381363,155.698578 163.381363,151.923569 163.381363,147.891602 
	C166.589111,147.891602 169.495941,147.891602 172.867523,147.891602 
	C172.867523,151.938461 172.867523,155.844742 172.867523,159.714890 
	C175.194122,159.714890 177.049591,159.714890 179.033707,159.714890 
	C179.033707,150.899185 179.033707,142.443115 179.014420,133.082687 
M47.302509,149.571991 
	C47.302509,147.103165 47.302509,144.634338 47.302509,142.065582 
	C43.841763,142.065582 40.750904,142.065582 36.995392,142.065582 
	C37.402538,144.076675 37.508472,147.068893 38.107704,147.171188 
	C43.129204,148.028336 40.692429,151.352859 41.084129,153.860733 
	C37.735214,153.860733 34.834263,153.860733 31.847546,153.860733 
	C31.847546,147.010651 31.847546,140.506317 31.847546,133.615509 
	C37.014503,133.615509 41.779434,133.615509 46.581978,133.615509 
	C46.581978,131.508392 46.581978,129.802094 46.581978,127.855247 
	C41.286369,127.855247 36.313789,127.820572 31.341955,127.866440 
	C27.501366,127.901863 25.428375,130.075516 25.337729,133.748032 
	C25.169567,140.560959 25.204607,147.382462 25.325258,154.197388 
	C25.381475,157.372894 27.015903,159.808716 30.354872,159.959717 
	C35.914242,160.211136 41.493248,160.028244 47.302471,160.028244 
	C47.302471,156.481354 47.302471,153.500763 47.302509,149.571991 
M199.569244,146.408966 
	C204.043304,143.945221 205.997696,133.637756 202.568741,129.930801 
	C201.732422,129.026672 200.333221,128.169449 199.163513,128.128510 
	C193.749786,127.938980 188.325729,128.044769 183.146835,128.044769 
	C183.146835,139.086487 183.146835,149.516907 183.146835,160.137085 
	C185.219757,160.014496 186.961700,159.911484 189.150696,159.782043 
	C189.150696,155.174347 189.150696,150.951126 189.150696,146.727921 
	C189.657669,146.533066 190.164627,146.338226 190.671600,146.143372 
	C192.372910,149.268707 194.461472,152.251282 195.679504,155.554794 
	C197.275620,159.883652 199.913544,161.021667 204.117996,159.654953 
	C202.338669,155.344101 200.564957,151.046829 199.569244,146.408966 
M88.463562,160.080292 
	C90.925339,160.080292 93.387115,160.080292 95.865112,160.080292 
	C95.865112,157.913345 95.865112,156.197556 95.865112,154.059265 
	C90.974953,154.059265 86.382751,154.059265 81.798370,154.059265 
	C81.798370,151.393433 81.798370,149.169357 81.798370,146.473007 
	C86.356857,146.473007 90.602989,146.473007 94.873306,146.473007 
	C94.873306,144.390152 94.873306,142.793839 94.873306,140.784088 
	C90.403114,140.784088 86.138550,140.784088 81.749954,140.784088 
	C81.749954,138.291718 81.749954,136.218781 81.749954,133.715378 
	C86.587364,133.715378 91.186501,133.715378 95.892532,133.715378 
	C95.892532,131.556290 95.892532,129.835419 95.892532,128.062897 
	C89.001030,128.062897 82.399834,128.062897 75.656464,128.062897 
	C75.656464,138.817307 75.656464,149.349350 75.656464,160.080292 
	C79.832893,160.080292 83.657997,160.080292 88.463562,160.080292 
M99.711456,145.493347 
	C99.711456,150.260101 99.711456,155.026840 99.711456,159.784241 
	C101.951378,159.784241 103.699440,159.784241 105.038132,159.784241 
	C105.898621,155.503403 106.689278,151.569962 107.479935,147.636536 
	C108.042213,147.632416 108.604492,147.628296 109.166771,147.624176 
	C110.892097,150.592896 112.907799,153.434906 114.272018,156.561203 
	C116.134644,160.829636 119.302917,160.343353 123.203331,159.742798 
	C120.184563,154.594208 117.467384,149.686447 114.465919,144.959152 
	C113.017548,142.677963 112.873634,140.990173 114.677063,138.788712 
	C117.365860,135.506454 119.676003,131.914001 122.236557,128.328476 
	C117.521492,126.951546 114.579285,128.264633 112.410683,132.212708 
	C110.834595,135.082077 108.587479,137.582840 106.639565,140.247955 
	C106.270744,140.074951 105.901932,139.901947 105.533112,139.728943 
	C105.533112,135.839890 105.533112,131.950821 105.533112,127.803314 
	C103.333221,127.912849 101.609062,127.998695 99.711494,128.093170 
	C99.711494,133.871429 99.711494,139.184189 99.711456,145.493347 
M50.973797,148.485321 
	C50.973797,152.258240 50.973797,156.031143 50.973797,159.788818 
	C58.215378,159.788818 64.949081,159.788818 71.694092,159.788818 
	C71.694092,157.902954 71.694092,156.304260 71.694092,154.137924 
	C66.803780,154.137924 62.082706,154.137924 57.418320,154.137924 
	C57.418320,151.317307 57.418320,149.071457 57.418320,146.361359 
	C61.955063,146.361359 66.200600,146.361359 70.728195,146.361359 
	C70.617699,144.300446 70.533211,142.724747 70.424240,140.692322 
	C65.843712,140.692322 61.604012,140.692322 57.443455,140.692322 
	C57.443455,138.138260 57.443455,136.067947 57.443455,133.608795 
	C62.339325,133.608795 66.939423,133.608795 71.564583,133.608795 
	C71.564583,131.502777 71.564583,129.798096 71.564583,128.024643 
	C64.641739,128.024643 58.044033,128.024643 50.973824,128.024643 
	C50.973824,134.617401 50.973824,141.054199 50.973797,148.485321 
z"/>
<path fill="#0F0C0D" opacity="1.000000" stroke="none" 
	d="
M120.662125,83.501511 
	C120.423454,91.930534 116.560944,95.889656 108.727264,95.947182 
	C98.234009,96.024246 87.739098,96.039146 77.246155,95.942986 
	C68.693077,95.864609 63.535049,90.806244 63.412182,82.327354 
	C63.274628,72.834923 63.245876,63.337772 63.378689,53.845596 
	C63.481991,46.462574 67.759819,41.043583 74.446205,40.768063 
	C85.420776,40.315842 96.424141,40.562016 107.415367,40.515675 
	C108.888046,40.509468 110.360771,40.514820 112.004852,40.514820 
	C112.004852,43.407558 112.004852,45.875668 112.004852,48.916512 
	C101.189827,48.916512 90.413811,48.917385 79.637802,48.916206 
	C72.402885,48.915417 71.897057,49.405869 71.893227,56.505497 
	C71.888824,64.667358 72.040932,72.833008 71.832741,80.989555 
	C71.720154,85.400665 73.241600,87.439796 77.854599,87.368370 
	C88.012840,87.211105 98.176392,87.393944 108.334412,87.229668 
	C109.632263,87.208679 110.910027,85.945549 112.197098,85.257851 
	C110.942009,84.535149 109.751511,83.387169 108.417427,83.184555 
	C106.137733,82.838310 103.764008,83.172714 101.436928,83.065605 
	C94.334480,82.738701 89.131912,77.582382 88.890610,70.720772 
	C88.659958,64.162491 93.402054,58.070122 100.242081,57.882137 
	C115.710625,57.457005 131.207565,57.429592 146.674759,57.874138 
	C153.788605,58.078598 158.508835,64.273430 158.135788,71.077148 
	C157.777222,77.616776 152.590744,82.683861 145.711349,83.060600 
	C142.888062,83.215218 140.036423,82.945557 137.226562,83.194550 
	C136.402283,83.267593 135.677155,84.459381 134.906586,85.138428 
	C135.646790,85.851143 136.327591,87.086784 137.138275,87.178871 
	C139.605560,87.459137 142.125229,87.233383 144.620453,87.320564 
	C153.173767,87.619400 158.701462,92.787476 158.612595,100.341003 
	C158.525864,107.714516 152.635513,112.956429 144.225967,113.001266 
	C133.774612,113.056999 123.322731,113.014633 112.636452,113.014633 
	C112.636452,110.150185 112.636452,107.702431 112.636452,104.514946 
	C119.684731,104.514946 126.770317,104.515327 133.855911,104.514786 
	C137.686981,104.514496 141.520630,104.598351 145.348267,104.483139 
	C148.178711,104.397926 150.658661,103.030678 149.864807,99.996193 
	C149.439301,98.369743 147.056595,96.591797 145.246552,96.147598 
	C142.573898,95.491684 139.614471,96.113304 136.795029,95.924316 
	C130.557281,95.506187 125.943314,90.620781 126.183167,84.887627 
	C126.420128,79.223518 130.962311,74.983978 137.107269,74.768967 
	C139.602982,74.681633 142.286911,75.294884 144.546783,74.555313 
	C146.523911,73.908287 148.026794,71.812164 149.739166,70.356201 
	C148.037338,68.931473 146.363586,66.311455 144.629257,66.270714 
	C130.478806,65.938324 116.314240,65.958054 102.162476,66.264000 
	C100.502502,66.299881 98.894035,68.718536 97.261688,70.032593 
	C98.718246,71.584610 99.911461,73.812515 101.701050,74.509811 
	C103.730621,75.300598 106.294403,74.711304 108.625748,74.738304 
	C115.379570,74.816513 118.058952,76.700089 120.662125,83.501511 
z"/>
<path fill="#0A0A0A" opacity="1.000000" stroke="none" 
	d="
M131.714264,129.501297 
	C137.971436,128.847763 144.260376,128.105423 150.425232,128.684464 
	C153.671982,128.989441 154.812225,135.987381 153.352249,141.164719 
	C152.950226,142.590347 153.151718,144.278366 153.418839,145.785263 
	C154.956436,154.459244 154.875153,161.297470 144.512299,160.139084 
	C140.421463,159.681808 136.236771,160.064102 131.694504,160.064102 
	C131.694504,149.845551 131.694504,139.903427 131.714264,129.501297 
M137.719177,147.417816 
	C137.719177,149.536530 137.719177,151.655243 137.719177,153.847015 
	C141.198059,153.847015 144.382797,153.847015 147.676025,153.847015 
	C147.676025,151.339737 147.676025,149.242493 147.676025,146.739197 
	C144.388824,146.739197 141.307068,146.739197 137.719177,147.417816 
M142.342361,133.670074 
	C140.910492,133.670074 139.478622,133.670074 138.050583,133.670074 
	C138.050583,136.359436 138.050583,138.523773 138.050583,140.867249 
	C140.089905,140.867249 141.724533,140.824295 143.356049,140.877289 
	C145.804596,140.956802 147.831436,141.031479 147.928421,137.459961 
	C148.030197,133.711441 146.061386,133.432068 142.342361,133.670074 
z"/>
<path fill="#0D0D0D" opacity="1.000000" stroke="none" 
	d="
M179.024063,133.534851 
	C179.033707,142.443115 179.033707,150.899185 179.033707,159.714890 
	C177.049591,159.714890 175.194122,159.714890 172.867523,159.714890 
	C172.867523,155.844742 172.867523,151.938461 172.867523,147.891602 
	C169.495941,147.891602 166.589111,147.891602 163.381363,147.891602 
	C163.381363,151.923569 163.381363,155.698578 163.381363,159.767532 
	C161.351212,159.767532 159.617905,159.767532 157.410019,159.767532 
	C157.410019,150.756424 157.377762,141.689713 157.459702,132.624039 
	C157.467926,131.713135 158.048996,130.097351 158.565170,130.011108 
	C163.642929,129.162460 168.772034,128.080139 173.866684,128.171600 
	C175.611420,128.202927 177.300125,131.355911 179.024063,133.534851 
M170.349670,133.687561 
	C162.525391,133.652695 162.088043,134.195740 163.954636,141.558289 
	C166.864761,141.558289 169.755524,141.558289 173.762161,141.558289 
	C172.809891,138.563965 172.041077,136.146500 170.349670,133.687561 
z"/>
<path fill="#0F0F0F" opacity="1.000000" stroke="none" 
	d="
M47.302490,150.046082 
	C47.302471,153.500763 47.302471,156.481354 47.302471,160.028244 
	C41.493248,160.028244 35.914242,160.211136 30.354872,159.959717 
	C27.015903,159.808716 25.381475,157.372894 25.325258,154.197388 
	C25.204607,147.382462 25.169567,140.560959 25.337729,133.748032 
	C25.428375,130.075516 27.501366,127.901863 31.341955,127.866440 
	C36.313789,127.820572 41.286369,127.855247 46.581978,127.855247 
	C46.581978,129.802094 46.581978,131.508392 46.581978,133.615509 
	C41.779434,133.615509 37.014503,133.615509 31.847546,133.615509 
	C31.847546,140.506317 31.847546,147.010651 31.847546,153.860733 
	C34.834263,153.860733 37.735214,153.860733 41.084129,153.860733 
	C40.692429,151.352859 43.129204,148.028336 38.107704,147.171188 
	C37.508472,147.068893 37.402538,144.076675 36.995392,142.065582 
	C40.750904,142.065582 43.841763,142.065582 47.302509,142.065582 
	C47.302509,144.634338 47.302509,147.103165 47.302490,150.046082 
z"/>
<path fill="#090909" opacity="1.000000" stroke="none" 
	d="
M199.180237,146.579254 
	C200.564957,151.046829 202.338669,155.344101 204.117996,159.654953 
	C199.913544,161.021667 197.275620,159.883652 195.679504,155.554794 
	C194.461472,152.251282 192.372910,149.268707 190.671600,146.143372 
	C190.164627,146.338226 189.657669,146.533066 189.150696,146.727921 
	C189.150696,150.951126 189.150696,155.174347 189.150696,159.782043 
	C186.961700,159.911484 185.219757,160.014496 183.146835,160.137085 
	C183.146835,149.516907 183.146835,139.086487 183.146835,128.044769 
	C188.325729,128.044769 193.749786,127.938980 199.163513,128.128510 
	C200.333221,128.169449 201.732422,129.026672 202.568741,129.930801 
	C205.997696,133.637756 204.043304,143.945221 199.180237,146.579254 
M196.072754,140.796524 
	C196.867783,138.711365 197.662827,136.626205 198.673203,133.976257 
	C194.565674,133.976257 191.858582,133.976257 189.103271,133.976257 
	C189.103271,136.329544 189.103271,138.398911 189.103271,140.833435 
	C191.284210,140.833435 193.224869,140.833435 196.072754,140.796524 
z"/>
<path fill="#121212" opacity="1.000000" stroke="none" 
	d="
M87.973335,160.080292 
	C83.657997,160.080292 79.832893,160.080292 75.656464,160.080292 
	C75.656464,149.349350 75.656464,138.817307 75.656464,128.062897 
	C82.399834,128.062897 89.001030,128.062897 95.892532,128.062897 
	C95.892532,129.835419 95.892532,131.556290 95.892532,133.715378 
	C91.186501,133.715378 86.587364,133.715378 81.749954,133.715378 
	C81.749954,136.218781 81.749954,138.291718 81.749954,140.784088 
	C86.138550,140.784088 90.403114,140.784088 94.873306,140.784088 
	C94.873306,142.793839 94.873306,144.390152 94.873306,146.473007 
	C90.602989,146.473007 86.356857,146.473007 81.798370,146.473007 
	C81.798370,149.169357 81.798370,151.393433 81.798370,154.059265 
	C86.382751,154.059265 90.974953,154.059265 95.865112,154.059265 
	C95.865112,156.197556 95.865112,157.913345 95.865112,160.080292 
	C93.387115,160.080292 90.925339,160.080292 87.973335,160.080292 
z"/>
<path fill="#0B0B0B" opacity="1.000000" stroke="none" 
	d="
M99.711472,144.995148 
	C99.711494,139.184189 99.711494,133.871429 99.711494,128.093170 
	C101.609062,127.998695 103.333221,127.912849 105.533112,127.803314 
	C105.533112,131.950821 105.533112,135.839890 105.533112,139.728943 
	C105.901932,139.901947 106.270744,140.074951 106.639565,140.247955 
	C108.587479,137.582840 110.834595,135.082077 112.410683,132.212708 
	C114.579285,128.264633 117.521492,126.951546 122.236557,128.328476 
	C119.676003,131.914001 117.365860,135.506454 114.677063,138.788712 
	C112.873634,140.990173 113.017548,142.677963 114.465919,144.959152 
	C117.467384,149.686447 120.184563,154.594208 123.203331,159.742798 
	C119.302917,160.343353 116.134644,160.829636 114.272018,156.561203 
	C112.907799,153.434906 110.892097,150.592896 109.166771,147.624176 
	C108.604492,147.628296 108.042213,147.632416 107.479935,147.636536 
	C106.689278,151.569962 105.898621,155.503403 105.038132,159.784241 
	C103.699440,159.784241 101.951378,159.784241 99.711456,159.784241 
	C99.711456,155.026840 99.711456,150.260101 99.711472,144.995148 
z"/>
<path fill="#0C0C0C" opacity="1.000000" stroke="none" 
	d="
M50.973808,147.988159 
	C50.973824,141.054199 50.973824,134.617401 50.973824,128.024643 
	C58.044033,128.024643 64.641739,128.024643 71.564583,128.024643 
	C71.564583,129.798096 71.564583,131.502777 71.564583,133.608795 
	C66.939423,133.608795 62.339325,133.608795 57.443455,133.608795 
	C57.443455,136.067947 57.443455,138.138260 57.443455,140.692322 
	C61.604012,140.692322 65.843712,140.692322 70.424240,140.692322 
	C70.533211,142.724747 70.617699,144.300446 70.728195,146.361359 
	C66.200600,146.361359 61.955063,146.361359 57.418320,146.361359 
	C57.418320,149.071457 57.418320,151.317307 57.418320,154.137924 
	C62.082706,154.137924 66.803780,154.137924 71.694092,154.137924 
	C71.694092,156.304260 71.694092,157.902954 71.694092,159.788818 
	C64.949081,159.788818 58.215378,159.788818 50.973797,159.788818 
	C50.973797,156.031143 50.973797,152.258240 50.973808,147.988159 
z"/>
<path fill="#EBEBEB" opacity="1.000000" stroke="none" 
	d="
M137.972244,147.078506 
	C141.307068,146.739197 144.388824,146.739197 147.676025,146.739197 
	C147.676025,149.242493 147.676025,151.339737 147.676025,153.847015 
	C144.382797,153.847015 141.198059,153.847015 137.719177,153.847015 
	C137.719177,151.655243 137.719177,149.536530 137.972244,147.078506 
z"/>
<path fill="#F0F0F0" opacity="1.000000" stroke="none" 
	d="
M142.819702,133.670258 
	C146.061386,133.432068 148.030197,133.711441 147.928421,137.459961 
	C147.831436,141.031479 145.804596,140.956802 143.356049,140.877289 
	C141.724533,140.824295 140.089905,140.867249 138.050583,140.867249 
	C138.050583,138.523773 138.050583,136.359436 138.050583,133.670074 
	C139.478622,133.670074 140.910492,133.670074 142.819702,133.670258 
z"/>
<path fill="#ECECEC" opacity="1.000000" stroke="none" 
	d="
M170.810959,133.708298 
	C172.041077,136.146500 172.809891,138.563965 173.762161,141.558289 
	C169.755524,141.558289 166.864761,141.558289 163.954636,141.558289 
	C162.088043,134.195740 162.525391,133.652695 170.810959,133.708298 
z"/>
<path fill="#F4F4F4" opacity="1.000000" stroke="none" 
	d="
M195.619141,140.814972 
	C193.224869,140.833435 191.284210,140.833435 189.103271,140.833435 
	C189.103271,138.398911 189.103271,136.329544 189.103271,133.976257 
	C191.858582,133.976257 194.565674,133.976257 198.673203,133.976257 
	C197.662827,136.626205 196.867783,138.711365 195.619141,140.814972 
z"/>
</svg>