<svg version="1.1" id="Layer_1" xmlns="http://www.w3.org/2000/svg" xmlns:xlink="http://www.w3.org/1999/xlink" x="0px" y="0px"
	 width="100%" viewBox="0 0 224 224" enable-background="new 0 0 224 224" xml:space="preserve">
<path fill="#FDFDFD" opacity="1.000000" stroke="none" 
	d="
M153.000000,225.000000 
	C102.000000,225.000000 51.500008,225.000000 1.000007,225.000000 
	C1.000005,150.333344 1.000005,75.666679 1.000002,1.000017 
	C75.666656,1.000011 150.333313,1.000011 224.999969,1.000006 
	C224.999985,75.666649 224.999985,150.333298 225.000000,224.999969 
	C201.166672,225.000000 177.333328,225.000000 153.000000,225.000000 
M31.757822,143.499878 
	C31.757822,151.743118 31.757822,159.986343 31.757822,169.032440 
	C36.569843,167.145874 42.024200,171.440598 44.810524,165.110794 
	C53.050694,171.698410 62.849274,171.638702 70.646133,164.945251 
	C78.572510,158.140594 80.993752,144.121399 75.011589,134.823868 
	C72.643684,131.143646 68.742302,127.920509 64.814796,125.890991 
	C58.037121,122.388672 51.096920,124.071594 44.128838,128.630447 
	C44.128838,122.343773 44.128838,116.961273 44.128838,111.684639 
	C39.737400,111.684639 35.862274,111.684639 31.757818,111.684639 
	C31.757818,122.200722 31.757818,132.350281 31.757822,143.499878 
M92.702484,168.070572 
	C100.773071,171.145325 108.504562,171.193741 114.791428,165.741837 
	C118.711174,170.719055 123.517494,167.405106 127.551880,168.576096 
	C127.551880,153.969864 127.551880,140.063309 127.551880,125.068207 
	C123.333412,127.703850 117.970131,122.569405 114.922676,128.847427 
	C110.559601,124.440659 105.157608,123.331795 99.325279,124.297424 
	C89.234940,125.968025 82.714981,132.137665 80.941811,141.345581 
	C78.676720,153.108032 82.369049,161.965530 92.702484,168.070572 
M197.124985,97.488319 
	C197.124985,86.922691 197.124985,76.357071 197.124985,65.668159 
	C192.840866,65.668159 189.204041,65.668159 185.380188,65.668159 
	C185.186996,66.634506 184.985138,67.644211 184.760422,68.768234 
	C176.435699,61.778999 163.750702,62.482319 156.166351,70.174683 
	C148.004929,78.452339 147.657043,94.316940 155.445282,103.057716 
	C162.529953,111.008888 175.774048,112.028542 184.356384,105.551437 
	C187.695908,110.854111 192.721451,106.826942 197.124985,108.632385 
	C197.124985,104.724480 197.124985,101.603508 197.124985,97.488319 
M60.236481,102.475830 
	C60.240685,96.486481 60.118412,90.493393 60.294884,84.509125 
	C60.407013,80.706535 61.341904,77.120728 65.830093,76.132629 
	C71.085854,74.975540 74.343307,77.743233 74.539307,84.058723 
	C74.785126,91.979485 74.598465,99.913658 74.598465,107.860886 
	C79.180397,107.860886 83.221306,107.860886 87.239609,107.860886 
	C87.239609,97.858139 87.406517,88.207153 87.187096,78.564964 
	C87.009796,70.773735 83.141640,66.404335 75.592140,64.497490 
	C69.629234,62.991383 64.544876,64.615448 60.174465,68.939011 
	C58.939728,65.190903 56.141068,64.615524 47.871231,66.169518 
	C47.871231,80.027504 47.871231,93.912109 47.871231,108.006142 
	C52.000656,108.006142 55.906158,108.006142 60.236496,108.006142 
	C60.236496,106.369766 60.236496,104.921715 60.236481,102.475830 
M111.986290,77.307137 
	C115.548439,77.307137 119.110588,77.307137 122.689331,77.307137 
	C121.884399,64.231171 105.626732,60.263290 95.145691,67.795792 
	C90.797531,70.920715 89.051796,75.199120 89.944099,80.426361 
	C90.781532,85.332130 93.937996,88.365379 98.541534,89.859962 
	C101.537392,90.832596 104.848022,91.084663 107.590500,92.491936 
	C109.142860,93.288513 109.832108,95.767113 110.910095,97.488129 
	C108.671982,97.967911 105.125290,99.575188 104.408951,98.743805 
	C99.890488,93.499588 94.394455,96.614014 89.296761,95.614594 
	C90.396194,108.497574 104.710060,112.603104 115.442459,107.816956 
	C121.526390,105.103813 124.573975,100.213295 124.142494,94.070892 
	C123.770348,88.773201 120.445992,85.135338 114.101830,83.098404 
	C111.108353,82.137283 107.957939,81.492500 105.186989,80.093597 
	C104.040581,79.514839 103.702499,77.334969 102.996796,75.883270 
	C104.777451,75.446251 106.577576,74.631332 108.331070,74.721634 
	C109.298904,74.771469 110.188522,76.340073 111.986290,77.307137 
M131.362808,51.935493 
	C131.362808,56.372124 131.362808,60.808758 131.362808,65.248619 
	C128.851913,65.466629 127.054726,65.622665 125.179581,65.785477 
	C125.179581,68.891937 125.179581,71.817345 125.179581,74.830376 
	C127.308311,75.011292 129.215820,75.173401 131.479324,75.365761 
	C131.479324,86.442451 131.479324,97.202309 131.479324,108.034027 
	C135.809570,108.034027 139.749313,108.034027 144.244415,108.034027 
	C144.244415,96.969490 144.244415,86.084503 144.244415,75.266914 
	C146.573456,75.071587 148.339996,74.923431 149.881348,74.794167 
	C149.881348,71.560966 149.881348,68.668167 149.881348,65.808487 
	C147.784622,65.553947 146.048874,65.343224 144.072693,65.103317 
	C144.072693,60.347073 144.072693,55.898987 144.072693,51.219578 
	C139.849136,51.219578 135.904083,51.219578 131.362808,51.935493 
M153.685501,124.330719 
	C150.249374,125.438171 146.813248,126.545616 143.577927,127.588341 
	C140.236542,123.849068 135.418762,126.739815 131.196350,125.762192 
	C131.196350,140.361252 131.196350,154.241379 131.196350,168.171814 
	C135.518661,168.171814 139.590485,168.171814 143.849457,168.171814 
	C143.849457,161.386414 143.845032,154.914352 143.850494,148.442291 
	C143.858414,139.082367 144.521179,138.291779 153.973083,136.518494 
	C153.973083,132.755829 153.973083,128.952240 153.685501,124.330719 
M44.347748,88.499962 
	C44.347748,80.932137 44.347748,73.364319 44.347748,65.887985 
	C39.789093,65.887985 35.909111,65.887985 32.002224,65.887985 
	C32.002224,80.093163 32.002224,93.961624 32.002224,107.818512 
	C36.255367,107.818512 40.261940,107.818512 44.347755,107.818512 
	C44.347755,101.450134 44.347755,95.475044 44.347748,88.499962 
M41.406353,60.910034 
	C48.078735,59.358986 42.399616,54.400204 45.018646,51.052746 
	C42.071125,51.052746 40.111313,51.052746 38.151497,51.052746 
	C36.053909,51.052746 33.956318,51.052746 31.928211,51.052746 
	C31.928211,54.573029 31.928211,57.522758 31.928211,60.910217 
	C34.874165,60.910217 37.651897,60.910217 41.406353,60.910034 
z"/>
<path fill="#080808" opacity="1.000000" stroke="none" 
	d="
M31.757820,142.999863 
	C31.757818,132.350281 31.757818,122.200722 31.757818,111.684639 
	C35.862274,111.684639 39.737400,111.684639 44.128838,111.684639 
	C44.128838,116.961273 44.128838,122.343773 44.128838,128.630447 
	C51.096920,124.071594 58.037121,122.388672 64.814796,125.890991 
	C68.742302,127.920509 72.643684,131.143646 75.011589,134.823868 
	C80.993752,144.121399 78.572510,158.140594 70.646133,164.945251 
	C62.849274,171.638702 53.050694,171.698410 44.810524,165.110794 
	C42.024200,171.440598 36.569843,167.145874 31.757822,169.032440 
	C31.757822,159.986343 31.757822,151.743118 31.757820,142.999863 
M44.228962,144.189484 
	C42.093735,152.825455 49.505081,160.441360 58.318615,157.317963 
	C63.141968,155.608612 65.745872,151.212936 65.234535,145.987259 
	C64.754158,141.077957 61.449528,137.323364 56.685337,136.274017 
	C51.830860,135.204788 47.393211,137.822784 44.228962,144.189484 
z"/>
<path fill="#0A0A0A" opacity="1.000000" stroke="none" 
	d="
M92.339066,167.942566 
	C82.369049,161.965530 78.676720,153.108032 80.941811,141.345581 
	C82.714981,132.137665 89.234940,125.968025 99.325279,124.297424 
	C105.157608,123.331795 110.559601,124.440659 114.922676,128.847427 
	C117.970131,122.569405 123.333412,127.703850 127.551880,125.068207 
	C127.551880,140.063309 127.551880,153.969864 127.551880,168.576096 
	C123.517494,167.405106 118.711174,170.719055 114.791428,165.741837 
	C108.504562,171.193741 100.773071,171.145325 92.339066,167.942566 
M107.581291,157.521927 
	C112.629181,155.493851 115.155685,151.694427 114.832932,146.327316 
	C114.549774,141.618683 112.027039,138.345901 107.457077,136.758057 
	C102.822113,135.147614 98.909241,136.434479 95.825851,139.960434 
	C92.707703,143.526123 92.152878,147.768753 94.307213,151.984909 
	C96.895271,157.049866 101.349579,158.654694 107.581291,157.521927 
z"/>
<path fill="#080808" opacity="1.000000" stroke="none" 
	d="
M197.124985,97.985428 
	C197.124985,101.603508 197.124985,104.724480 197.124985,108.632385 
	C192.721451,106.826942 187.695908,110.854111 184.356384,105.551437 
	C175.774048,112.028542 162.529953,111.008888 155.445282,103.057716 
	C147.657043,94.316940 148.004929,78.452339 156.166351,70.174683 
	C163.750702,62.482319 176.435699,61.778999 184.760422,68.768234 
	C184.985138,67.644211 185.186996,66.634506 185.380188,65.668159 
	C189.204041,65.668159 192.840866,65.668159 197.124985,65.668159 
	C197.124985,76.357071 197.124985,86.922691 197.124985,97.985428 
M162.867889,88.225273 
	C164.317749,94.526085 168.164062,97.954468 173.700531,97.880882 
	C178.842926,97.812538 182.984818,94.434006 184.030228,89.454994 
	C185.402145,82.920906 181.540894,76.979111 175.351685,76.100220 
	C168.254364,75.092377 163.495117,79.366890 162.867889,88.225273 
z"/>
<path fill="#060606" opacity="1.000000" stroke="none" 
	d="
M60.236488,102.974747 
	C60.236496,104.921715 60.236496,106.369766 60.236496,108.006142 
	C55.906158,108.006142 52.000656,108.006142 47.871231,108.006142 
	C47.871231,93.912109 47.871231,80.027504 47.871231,66.169518 
	C56.141068,64.615524 58.939728,65.190903 60.174465,68.939011 
	C64.544876,64.615448 69.629234,62.991383 75.592140,64.497490 
	C83.141640,66.404335 87.009796,70.773735 87.187096,78.564964 
	C87.406517,88.207153 87.239609,97.858139 87.239609,107.860886 
	C83.221306,107.860886 79.180397,107.860886 74.598465,107.860886 
	C74.598465,99.913658 74.785126,91.979485 74.539307,84.058723 
	C74.343307,77.743233 71.085854,74.975540 65.830093,76.132629 
	C61.341904,77.120728 60.407013,80.706535 60.294884,84.509125 
	C60.118412,90.493393 60.240685,96.486481 60.236488,102.974747 
z"/>
<path fill="#0A0A0A" opacity="1.000000" stroke="none" 
	d="
M111.549850,77.265572 
	C110.188522,76.340073 109.298904,74.771469 108.331070,74.721634 
	C106.577576,74.631332 104.777451,75.446251 102.996796,75.883270 
	C103.702499,77.334969 104.040581,79.514839 105.186989,80.093597 
	C107.957939,81.492500 111.108353,82.137283 114.101830,83.098404 
	C120.445992,85.135338 123.770348,88.773201 124.142494,94.070892 
	C124.573975,100.213295 121.526390,105.103813 115.442459,107.816956 
	C104.710060,112.603104 90.396194,108.497574 89.296761,95.614594 
	C94.394455,96.614014 99.890488,93.499588 104.408951,98.743805 
	C105.125290,99.575188 108.671982,97.967911 110.910095,97.488129 
	C109.832108,95.767113 109.142860,93.288513 107.590500,92.491936 
	C104.848022,91.084663 101.537392,90.832596 98.541534,89.859962 
	C93.937996,88.365379 90.781532,85.332130 89.944099,80.426361 
	C89.051796,75.199120 90.797531,70.920715 95.145691,67.795792 
	C105.626732,60.263290 121.884399,64.231171 122.689331,77.307137 
	C119.110588,77.307137 115.548439,77.307137 111.549850,77.265572 
z"/>
<path fill="#0A0A0A" opacity="1.000000" stroke="none" 
	d="
M131.660919,51.577538 
	C135.904083,51.219578 139.849136,51.219578 144.072693,51.219578 
	C144.072693,55.898987 144.072693,60.347073 144.072693,65.103317 
	C146.048874,65.343224 147.784622,65.553947 149.881348,65.808487 
	C149.881348,68.668167 149.881348,71.560966 149.881348,74.794167 
	C148.339996,74.923431 146.573456,75.071587 144.244415,75.266914 
	C144.244415,86.084503 144.244415,96.969490 144.244415,108.034027 
	C139.749313,108.034027 135.809570,108.034027 131.479324,108.034027 
	C131.479324,97.202309 131.479324,86.442451 131.479324,75.365761 
	C129.215820,75.173401 127.308311,75.011292 125.179581,74.830376 
	C125.179581,71.817345 125.179581,68.891937 125.179581,65.785477 
	C127.054726,65.622665 128.851913,65.466629 131.362808,65.248619 
	C131.362808,60.808758 131.362808,56.372124 131.660919,51.577538 
z"/>
<path fill="#080808" opacity="1.000000" stroke="none" 
	d="
M153.829285,124.739677 
	C153.973083,128.952240 153.973083,132.755829 153.973083,136.518494 
	C144.521179,138.291779 143.858414,139.082367 143.850494,148.442291 
	C143.845032,154.914352 143.849457,161.386414 143.849457,168.171814 
	C139.590485,168.171814 135.518661,168.171814 131.196350,168.171814 
	C131.196350,154.241379 131.196350,140.361252 131.196350,125.762192 
	C135.418762,126.739815 140.236542,123.849068 143.577927,127.588341 
	C146.813248,126.545616 150.249374,125.438171 153.829285,124.739677 
z"/>
<path fill="#050505" opacity="1.000000" stroke="none" 
	d="
M44.347752,88.999954 
	C44.347755,95.475044 44.347755,101.450134 44.347755,107.818512 
	C40.261940,107.818512 36.255367,107.818512 32.002224,107.818512 
	C32.002224,93.961624 32.002224,80.093163 32.002224,65.887985 
	C35.909111,65.887985 39.789093,65.887985 44.347748,65.887985 
	C44.347748,73.364319 44.347748,80.932137 44.347752,88.999954 
z"/>
<path fill="#0A0A0A" opacity="1.000000" stroke="none" 
	d="
M40.917992,60.910126 
	C37.651897,60.910217 34.874165,60.910217 31.928211,60.910217 
	C31.928211,57.522758 31.928211,54.573029 31.928211,51.052746 
	C33.956318,51.052746 36.053909,51.052746 38.151497,51.052746 
	C40.111313,51.052746 42.071125,51.052746 45.018646,51.052746 
	C42.399616,54.400204 48.078735,59.358986 40.917992,60.910126 
z"/>
<path fill="#FAFAFA" opacity="1.000000" stroke="none" 
	d="
M44.379204,143.817429 
	C47.393211,137.822784 51.830860,135.204788 56.685337,136.274017 
	C61.449528,137.323364 64.754158,141.077957 65.234535,145.987259 
	C65.745872,151.212936 63.141968,155.608612 58.318615,157.317963 
	C49.505081,160.441360 42.093735,152.825455 44.379204,143.817429 
z"/>
<path fill="#F8F8F8" opacity="1.000000" stroke="none" 
	d="
M107.200958,157.660080 
	C101.349579,158.654694 96.895271,157.049866 94.307213,151.984909 
	C92.152878,147.768753 92.707703,143.526123 95.825851,139.960434 
	C98.909241,136.434479 102.822113,135.147614 107.457077,136.758057 
	C112.027039,138.345901 114.549774,141.618683 114.832932,146.327316 
	C115.155685,151.694427 112.629181,155.493851 107.200958,157.660080 
z"/>
<path fill="#FAFAFA" opacity="1.000000" stroke="none" 
	d="
M162.819672,87.812210 
	C163.495117,79.366890 168.254364,75.092377 175.351685,76.100220 
	C181.540894,76.979111 185.402145,82.920906 184.030228,89.454994 
	C182.984818,94.434006 178.842926,97.812538 173.700531,97.880882 
	C168.164062,97.954468 164.317749,94.526085 162.819672,87.812210 
z"/>
</svg>