<svg xmlns="http://www.w3.org/2000/svg" xmlns:v="https://svgstorm.com"
viewBox = "0 0 241 177"
width="241"
height="177">
<g fill="None" fill-opacity="0.0" stroke="#FBFBFB" stroke-opacity="1.00" stroke-width="0.3"><path d="
M 0.00 5.00 
C 4.95 6.82 15.28 2.13 19.00 6.00
C 19.25 8.72 20.17 17.48 18.00 19.00
C 15.33 20.87 4.42 19.00 1.00 19.00
C 0.50 19.00 0.00 19.00 0.00 19.00
L 0.00 26.00
C 6.33 26.00 12.67 26.00 19.00 26.00
C 19.00 46.67 19.00 67.33 19.00 88.00
C 12.67 88.00 6.33 88.00 0.00 88.00
L 0.00 92.00
C 0.50 92.00 1.00 92.00 1.00 92.00
C 7.00 92.00 13.00 92.00 19.00 92.00
C 19.00 100.33 19.00 108.67 19.00 117.00
C 23.25 113.43 28.23 110.62 34.00 111.00
C 36.17 110.69 37.88 110.70 40.00 111.00
C 76.57 112.58 75.00 173.91 39.00 176.00
C 38.94 176.01 39.00 177.00 39.00 177.00
L 98.00 177.00
C 98.00 176.50 98.00 176.00 98.00 176.00
C 62.21 173.73 62.00 112.95 98.00 111.00
C 101.17 110.48 103.87 110.44 107.00 111.00
C 112.71 111.39 117.04 113.80 121.00 118.00
C 119.56 108.89 132.56 114.58 138.00 113.00
C 138.00 133.33 138.00 153.67 138.00 174.00
C 131.20 173.01 119.70 177.53 120.00 168.00
C 118.20 173.93 110.65 175.98 105.00 176.00
C 104.99 176.00 105.00 177.00 105.00 177.00
L 241.00 177.00
L 241.00 0.00
L 0.00 0.00
L 0.00 5.00
M 161.00 6.00 
C 164.13 10.47 158.65 20.98 161.00 26.00
C 164.00 26.00 167.00 26.00 170.00 26.00
C 170.00 30.67 170.00 35.33 170.00 40.00
C 167.00 40.00 164.00 40.00 161.00 40.00
C 161.00 56.00 161.00 72.00 161.00 88.00
C 155.00 88.00 149.00 88.00 143.00 88.00
C 143.00 72.00 143.00 56.00 143.00 40.00
C 140.00 40.00 137.00 40.00 134.00 40.00
C 134.00 35.33 134.00 30.67 134.00 26.00
C 137.00 26.00 140.00 26.00 143.00 26.00
C 143.00 19.33 143.00 12.67 143.00 6.00
C 144.43 3.95 159.62 4.02 161.00 6.00
M 80.00 88.00 
C 73.67 88.00 67.33 88.00 61.00 88.00
C 61.16 75.79 60.78 62.06 61.00 50.00 C 61.22 37.94 41.64 38.38 41.03 50.03 C 40.41 61.67 41.44 76.10 41.00 88.00
C 35.00 88.00 29.00 88.00 23.00 88.00
C 23.00 67.33 23.00 46.67 23.00 26.00
C 28.89 27.45 42.26 21.76 40.00 32.00
C 49.25 21.25 70.44 20.25 76.92 35.08 C 83.41 49.90 78.44 71.49 80.00 88.00
M 83.00 70.00 
C 84.75 67.36 98.81 68.61 101.00 70.00
C 103.56 71.62 109.70 79.33 113.25 72.25 C 116.80 65.17 107.24 64.51 102.98 63.02 C 98.71 61.54 91.70 60.78 88.25 56.75 C 84.81 52.71 82.13 46.75 83.33 41.33 C 84.53 35.91 87.61 32.32 92.08 29.08 C 96.56 25.85 102.30 24.10 108.00 24.00 C 113.71 23.91 119.33 25.69 123.75 29.25 C 128.16 32.82 130.18 37.68 131.00 43.00
C 124.59 41.48 113.86 46.70 111.00 39.00
C 92.44 41.16 110.24 50.46 120.02 51.98 C 129.81 53.50 136.28 68.45 131.07 77.07 C 125.87 85.70 114.37 91.08 104.00 90.00 C 93.63 88.92 83.03 81.34 83.00 70.00
M 218.00 31.00 
C 219.93 29.84 218.07 27.25 220.00 26.00
C 223.99 23.41 232.59 27.94 237.00 26.00
C 237.00 46.67 237.00 67.33 237.00 88.00
C 231.33 88.00 225.67 88.00 220.00 88.00
C 219.42 87.62 217.98 83.34 218.00 83.00
C 213.38 86.17 209.35 90.54 202.99 89.99 C 196.63 89.44 190.02 89.22 184.92 86.08 C 179.83 82.93 176.68 80.25 173.75 75.25 C 170.81 70.25 168.94 62.94 169.00 57.00 C 169.06 51.06 170.50 44.60 173.31 39.31 C 176.12 34.01 179.27 32.21 184.23 28.23 C 189.19 24.25 195.56 26.13 202.00 24.00 C 208.44 21.87 213.57 29.74 218.00 31.00
M 143.00 113.00 
C 144.62 110.69 158.17 111.32 160.00 113.00
C 160.83 113.76 159.37 117.02 160.00 118.00
C 164.47 113.65 169.20 109.58 176.00 111.00
C 176.00 117.00 176.00 123.00 176.00 129.00
C 151.89 127.82 163.77 158.98 161.00 174.00
C 155.00 174.00 149.00 174.00 143.00 174.00
C 143.00 153.67 143.00 133.33 143.00 113.00 Z"/>
</g>
<g fill="None" fill-opacity="0.0" stroke="#93959A" stroke-opacity="1.00" stroke-width="0.3"><path d="
M 0.00 6.00 
C 0.50 6.00 1.00 6.00 1.00 6.00
C 6.67 6.00 12.33 6.00 18.00 6.00
C 18.50 6.00 19.00 6.00 19.00 6.00
C 15.28 2.13 4.95 6.82 0.00 5.00
L 0.00 6.00 Z"/>
</g>
<g fill="None" fill-opacity="0.0" stroke="#8F9096" stroke-opacity="1.00" stroke-width="0.3"><path d="
M 143.00 6.00 
C 149.00 6.00 155.00 6.00 161.00 6.00
C 159.62 4.02 144.43 3.95 143.00 6.00 Z"/>
</g>
<g fill="None" fill-opacity="0.0" stroke="#484B56" stroke-opacity="1.00" stroke-width="0.3"><path d="
M 0.00 19.00 
C 0.00 19.00 0.50 19.00 1.00 19.00
C 1.37 14.90 1.37 10.10 1.00 6.00
C 1.00 6.00 0.50 6.00 0.00 6.00
L 0.00 19.00 Z"/>
</g>
<g fill="None" fill-opacity="0.0" stroke="#0D101B" stroke-opacity="1.00" stroke-width="0.3"><path d="
M 1.00 19.00 
C 4.42 19.00 15.33 20.87 18.00 19.00
C 18.29 14.69 17.61 10.30 18.00 6.00
C 12.33 6.00 6.67 6.00 1.00 6.00
C 1.37 10.10 1.37 14.90 1.00 19.00 Z"/>
</g>
<g fill="None" fill-opacity="0.0" stroke="#45474E" stroke-opacity="1.00" stroke-width="0.3"><path d="
M 18.00 19.00 
C 20.17 17.48 19.25 8.72 19.00 6.00
C 19.00 6.00 18.50 6.00 18.00 6.00
C 17.61 10.30 18.29 14.69 18.00 19.00 Z"/>
</g>
<g fill="None" fill-opacity="0.0" stroke="#0E111D" stroke-opacity="1.00" stroke-width="0.3"><path d="
M 161.00 6.00 
C 155.00 6.00 149.00 6.00 143.00 6.00
C 143.00 12.67 143.00 19.33 143.00 26.00
C 140.00 26.00 137.00 26.00 134.00 26.00
C 134.00 30.67 134.00 35.33 134.00 40.00
C 137.00 40.00 140.00 40.00 143.00 40.00
C 143.00 56.00 143.00 72.00 143.00 88.00
C 149.00 88.00 155.00 88.00 161.00 88.00
C 161.00 72.00 161.00 56.00 161.00 40.00
C 164.00 40.00 167.00 40.00 170.00 40.00
C 170.00 35.33 170.00 30.67 170.00 26.00
C 167.00 26.00 164.00 26.00 161.00 26.00
C 158.65 20.98 164.13 10.47 161.00 6.00 Z"/>
</g>
<g fill="None" fill-opacity="0.0" stroke="#10141F" stroke-opacity="1.00" stroke-width="0.3"><path d="
M 80.00 88.00 
C 78.44 71.49 83.41 49.90 76.92 35.08 C 70.44 20.25 49.25 21.25 40.00 32.00
C 42.26 21.76 28.89 27.45 23.00 26.00
C 23.00 46.67 23.00 67.33 23.00 88.00
C 29.00 88.00 35.00 88.00 41.00 88.00
C 41.44 76.10 40.41 61.67 41.03 50.03 C 41.64 38.38 61.22 37.94 61.00 50.00 C 60.78 62.06 61.16 75.79 61.00 88.00
C 67.33 88.00 73.67 88.00 80.00 88.00 Z"/>
</g>
<g fill="None" fill-opacity="0.0" stroke="#10131F" stroke-opacity="1.00" stroke-width="0.3"><path d="
M 101.00 70.00 
C 95.00 70.00 89.00 70.00 83.00 70.00
C 83.03 81.34 93.63 88.92 104.00 90.00 C 114.37 91.08 125.87 85.70 131.07 77.07 C 136.28 68.45 129.81 53.50 120.02 51.98 C 110.24 50.46 92.44 41.16 111.00 39.00
C 113.86 46.70 124.59 41.48 131.00 43.00
C 130.18 37.68 128.16 32.82 123.75 29.25 C 119.33 25.69 113.71 23.91 108.00 24.00 C 102.30 24.10 96.56 25.85 92.08 29.08 C 87.61 32.32 84.53 35.91 83.33 41.33 C 82.13 46.75 84.81 52.71 88.25 56.75 C 91.70 60.78 98.71 61.54 102.98 63.02 C 107.24 64.51 116.80 65.17 113.25 72.25 C 109.70 79.33 103.56 71.62 101.00 70.00 Z"/>
</g>
<g fill="None" fill-opacity="0.0" stroke="#0F131F" stroke-opacity="1.00" stroke-width="0.3"><path d="
M 218.00 83.00 
C 218.66 82.54 218.77 80.83 220.00 81.00
C 220.00 83.33 220.00 85.67 220.00 88.00
C 225.67 88.00 231.33 88.00 237.00 88.00
C 237.00 67.33 237.00 46.67 237.00 26.00
C 232.59 27.94 223.99 23.41 220.00 26.00
C 219.59 29.11 221.18 31.90 218.00 31.00
C 213.57 29.74 208.44 21.87 202.00 24.00 C 195.56 26.13 189.19 24.25 184.23 28.23 C 179.27 32.21 176.12 34.01 173.31 39.31 C 170.50 44.60 169.06 51.06 169.00 57.00 C 168.94 62.94 170.81 70.25 173.75 75.25 C 176.68 80.25 179.83 82.93 184.92 86.08 C 190.02 89.22 196.63 89.44 202.99 89.99 C 209.35 90.54 213.38 86.17 218.00 83.00
M 206.00 41.00 
C 225.19 43.97 220.06 76.62 200.33 72.67 C 180.60 68.72 186.20 37.94 206.00 41.00 Z"/>
</g>
<g fill="None" fill-opacity="0.0" stroke="#131723" stroke-opacity="1.00" stroke-width="0.3"><path d="
M 0.00 88.00 
C 6.33 88.00 12.67 88.00 19.00 88.00
C 19.00 67.33 19.00 46.67 19.00 26.00
C 12.67 26.00 6.33 26.00 0.00 26.00
L 0.00 88.00 Z"/>
</g>
<g fill="None" fill-opacity="0.0" stroke="#70747B" stroke-opacity="1.00" stroke-width="0.3"><path d="
M 218.00 31.00 
C 221.18 31.90 219.59 29.11 220.00 26.00
C 218.07 27.25 219.93 29.84 218.00 31.00 Z"/>
</g>
<g fill="None" fill-opacity="0.0" stroke="#F8F9F9" stroke-opacity="1.00" stroke-width="0.3"><path d="
M 206.00 41.00 
C 186.20 37.94 180.60 68.72 200.33 72.67 C 220.06 76.62 225.19 43.97 206.00 41.00 Z"/>
</g>
<g fill="None" fill-opacity="0.0" stroke="#808288" stroke-opacity="1.00" stroke-width="0.3"><path d="
M 83.00 70.00 
C 89.00 70.00 95.00 70.00 101.00 70.00
C 98.81 68.61 84.75 67.36 83.00 70.00 Z"/>
</g>
<g fill="None" fill-opacity="0.0" stroke="#696E77" stroke-opacity="1.00" stroke-width="0.3"><path d="
M 218.00 83.00 
C 217.98 83.34 219.42 87.62 220.00 88.00
C 220.00 85.67 220.00 83.33 220.00 81.00
C 218.77 80.83 218.66 82.54 218.00 83.00 Z"/>
</g>
<g fill="None" fill-opacity="0.0" stroke="#494C58" stroke-opacity="1.00" stroke-width="0.3"><path d="
M 0.00 174.00 
C 0.50 174.00 1.00 174.00 1.00 174.00
C 2.21 160.58 1.00 146.48 1.00 133.00 C 1.00 119.52 2.21 105.42 1.00 92.00
C 1.00 92.00 0.50 92.00 0.00 92.00
L 0.00 174.00 Z"/>
</g>
<g fill="None" fill-opacity="0.0" stroke="#0F121E" stroke-opacity="1.00" stroke-width="0.3"><path d="
M 1.00 174.00 
C 6.33 174.00 11.67 174.00 17.00 174.00
C 16.60 172.33 16.56 168.92 18.00 168.00
C 22.43 171.87 26.85 175.99 33.00 176.00
C 34.87 175.61 37.09 176.11 39.00 176.00
C 75.00 173.91 76.57 112.58 40.00 111.00
C 38.03 110.91 35.97 110.91 34.00 111.00
C 28.23 110.62 23.25 113.43 19.00 117.00
C 19.00 108.67 19.00 100.33 19.00 92.00
C 13.00 92.00 7.00 92.00 1.00 92.00
C 2.21 105.42 1.00 119.52 1.00 133.00 C 1.00 146.48 2.21 160.58 1.00 174.00
M 38.00 128.00 
C 56.90 132.40 47.03 165.84 28.33 158.67 C 9.63 151.50 18.77 123.53 38.00 128.00 Z"/>
</g>
<g fill="None" fill-opacity="0.0" stroke="#7A7C81" stroke-opacity="1.00" stroke-width="0.3"><path d="
M 34.00 111.00 
C 35.97 110.91 38.03 110.91 40.00 111.00
C 37.88 110.70 36.17 110.69 34.00 111.00 Z"/>
</g>
<g fill="None" fill-opacity="0.0" stroke="#686A70" stroke-opacity="1.00" stroke-width="0.3"><path d="
M 98.00 111.00 
C 100.92 110.84 104.08 110.80 107.00 111.00
C 103.87 110.44 101.17 110.48 98.00 111.00 Z"/>
</g>
<g fill="None" fill-opacity="0.0" stroke="#0E121E" stroke-opacity="1.00" stroke-width="0.3"><path d="
M 98.00 176.00 
C 100.28 176.14 102.72 176.11 105.00 176.00
C 110.65 175.98 118.20 173.93 120.00 168.00
C 119.70 177.53 131.20 173.01 138.00 174.00
C 138.00 153.67 138.00 133.33 138.00 113.00
C 132.56 114.58 119.56 108.89 121.00 118.00
C 117.04 113.80 112.71 111.39 107.00 111.00
C 104.08 110.80 100.92 110.84 98.00 111.00
C 62.00 112.95 62.21 173.73 98.00 176.00
M 110.00 128.00 
C 128.84 132.67 118.60 165.82 99.78 158.22 C 80.96 150.63 89.86 123.01 110.00 128.00 Z"/>
</g>
<g fill="None" fill-opacity="0.0" stroke="#0E121E" stroke-opacity="1.00" stroke-width="0.3"><path d="
M 160.00 113.00 
C 154.33 113.00 148.67 113.00 143.00 113.00
C 143.00 133.33 143.00 153.67 143.00 174.00
C 149.00 174.00 155.00 174.00 161.00 174.00
C 163.77 158.98 151.89 127.82 176.00 129.00
C 176.00 123.00 176.00 117.00 176.00 111.00
C 169.20 109.58 164.47 113.65 160.00 118.00
C 159.37 117.02 160.83 113.76 160.00 113.00 Z"/>
</g>
<g fill="None" fill-opacity="0.0" stroke="#94979D" stroke-opacity="1.00" stroke-width="0.3"><path d="
M 143.00 113.00 
C 148.67 113.00 154.33 113.00 160.00 113.00
C 158.17 111.32 144.62 110.69 143.00 113.00 Z"/>
</g>
<g fill="None" fill-opacity="0.0" stroke="#F9F9FA" stroke-opacity="1.00" stroke-width="0.3"><path d="
M 38.00 128.00 
C 18.77 123.53 9.63 151.50 28.33 158.67 C 47.03 165.84 56.90 132.40 38.00 128.00 Z"/>
</g>
<g fill="None" fill-opacity="0.0" stroke="#F8F8F9" stroke-opacity="1.00" stroke-width="0.3"><path d="
M 110.00 128.00 
C 89.86 123.01 80.96 150.63 99.78 158.22 C 118.60 165.82 128.84 132.67 110.00 128.00 Z"/>
</g>
<g fill="None" fill-opacity="0.0" stroke="#4B4D52" stroke-opacity="1.00" stroke-width="0.3"><path d="
M 17.00 174.00 
C 17.50 174.00 18.00 174.00 18.00 174.00
C 18.40 172.08 17.70 169.94 18.00 168.00
C 16.56 168.92 16.60 172.33 17.00 174.00 Z"/>
</g>
<g fill="None" fill-opacity="0.0" stroke="#F6F6F8" stroke-opacity="1.00" stroke-width="0.3"><path d="
M 18.00 174.00 
C 14.42 177.72 4.71 173.29 0.00 175.00
L 0.00 177.00
L 33.00 177.00
C 33.00 176.50 33.00 176.00 33.00 176.00
C 26.85 175.99 22.43 171.87 18.00 168.00
C 17.70 169.94 18.40 172.08 18.00 174.00 Z"/>
</g>
<g fill="None" fill-opacity="0.0" stroke="#B8B9BD" stroke-opacity="1.00" stroke-width="0.3"><path d="
M 0.00 175.00 
C 4.71 173.29 14.42 177.72 18.00 174.00
C 18.00 174.00 17.50 174.00 17.00 174.00
C 11.67 174.00 6.33 174.00 1.00 174.00
C 1.00 174.00 0.50 174.00 0.00 174.00
L 0.00 175.00 Z"/>
</g>
<g fill="None" fill-opacity="0.0" stroke="#A3A5AB" stroke-opacity="1.00" stroke-width="0.3"><path d="
M 33.00 177.00 
L 39.00 177.00
C 39.00 177.00 38.94 176.01 39.00 176.00
C 37.09 176.11 34.87 175.61 33.00 176.00
C 33.00 176.00 33.00 176.50 33.00 177.00 Z"/>
</g>
<g fill="None" fill-opacity="0.0" stroke="#AFB1B6" stroke-opacity="1.00" stroke-width="0.3"><path d="
M 98.00 177.00 
L 105.00 177.00
C 105.00 177.00 104.99 176.00 105.00 176.00
C 102.72 176.11 100.28 176.14 98.00 176.00
C 98.00 176.00 98.00 176.50 98.00 177.00 Z"/>
</g>
<g fill="#FBFBFB" fill-opacity="1.00" stroke="None">
<path d="
M 0.00 5.00 
C 4.95 6.82 15.28 2.13 19.00 6.00
C 19.25 8.72 20.17 17.48 18.00 19.00
C 15.33 20.87 4.42 19.00 1.00 19.00
C 0.50 19.00 0.00 19.00 0.00 19.00
L 0.00 26.00
C 6.33 26.00 12.67 26.00 19.00 26.00
C 19.00 46.67 19.00 67.33 19.00 88.00
C 12.67 88.00 6.33 88.00 0.00 88.00
L 0.00 92.00
C 0.50 92.00 1.00 92.00 1.00 92.00
C 7.00 92.00 13.00 92.00 19.00 92.00
C 19.00 100.33 19.00 108.67 19.00 117.00
C 23.25 113.43 28.23 110.62 34.00 111.00
C 36.17 110.69 37.88 110.70 40.00 111.00
C 76.57 112.58 75.00 173.91 39.00 176.00
C 38.94 176.01 39.00 177.00 39.00 177.00
L 98.00 177.00
C 98.00 176.50 98.00 176.00 98.00 176.00
C 62.21 173.73 62.00 112.95 98.00 111.00
C 101.17 110.48 103.87 110.44 107.00 111.00
C 112.71 111.39 117.04 113.80 121.00 118.00
C 119.56 108.89 132.56 114.58 138.00 113.00
C 138.00 133.33 138.00 153.67 138.00 174.00
C 131.20 173.01 119.70 177.53 120.00 168.00
C 118.20 173.93 110.65 175.98 105.00 176.00
C 104.99 176.00 105.00 177.00 105.00 177.00
L 241.00 177.00
L 241.00 0.00
L 0.00 0.00
L 0.00 5.00
M 161.00 6.00 
C 164.13 10.47 158.65 20.98 161.00 26.00
C 164.00 26.00 167.00 26.00 170.00 26.00
C 170.00 30.67 170.00 35.33 170.00 40.00
C 167.00 40.00 164.00 40.00 161.00 40.00
C 161.00 56.00 161.00 72.00 161.00 88.00
C 155.00 88.00 149.00 88.00 143.00 88.00
C 143.00 72.00 143.00 56.00 143.00 40.00
C 140.00 40.00 137.00 40.00 134.00 40.00
C 134.00 35.33 134.00 30.67 134.00 26.00
C 137.00 26.00 140.00 26.00 143.00 26.00
C 143.00 19.33 143.00 12.67 143.00 6.00
C 144.43 3.95 159.62 4.02 161.00 6.00
M 80.00 88.00 
C 73.67 88.00 67.33 88.00 61.00 88.00
C 61.16 75.79 60.78 62.06 61.00 50.00 C 61.22 37.94 41.64 38.38 41.03 50.03 C 40.41 61.67 41.44 76.10 41.00 88.00
C 35.00 88.00 29.00 88.00 23.00 88.00
C 23.00 67.33 23.00 46.67 23.00 26.00
C 28.89 27.45 42.26 21.76 40.00 32.00
C 49.25 21.25 70.44 20.25 76.92 35.08 C 83.41 49.90 78.44 71.49 80.00 88.00
M 83.00 70.00 
C 84.75 67.36 98.81 68.61 101.00 70.00
C 103.56 71.62 109.70 79.33 113.25 72.25 C 116.80 65.17 107.24 64.51 102.98 63.02 C 98.71 61.54 91.70 60.78 88.25 56.75 C 84.81 52.71 82.13 46.75 83.33 41.33 C 84.53 35.91 87.61 32.32 92.08 29.08 C 96.56 25.85 102.30 24.10 108.00 24.00 C 113.71 23.91 119.33 25.69 123.75 29.25 C 128.16 32.82 130.18 37.68 131.00 43.00
C 124.59 41.48 113.86 46.70 111.00 39.00
C 92.44 41.16 110.24 50.46 120.02 51.98 C 129.81 53.50 136.28 68.45 131.07 77.07 C 125.87 85.70 114.37 91.08 104.00 90.00 C 93.63 88.92 83.03 81.34 83.00 70.00
M 218.00 31.00 
C 219.93 29.84 218.07 27.25 220.00 26.00
C 223.99 23.41 232.59 27.94 237.00 26.00
C 237.00 46.67 237.00 67.33 237.00 88.00
C 231.33 88.00 225.67 88.00 220.00 88.00
C 219.42 87.62 217.98 83.34 218.00 83.00
C 213.38 86.17 209.35 90.54 202.99 89.99 C 196.63 89.44 190.02 89.22 184.92 86.08 C 179.83 82.93 176.68 80.25 173.75 75.25 C 170.81 70.25 168.94 62.94 169.00 57.00 C 169.06 51.06 170.50 44.60 173.31 39.31 C 176.12 34.01 179.27 32.21 184.23 28.23 C 189.19 24.25 195.56 26.13 202.00 24.00 C 208.44 21.87 213.57 29.74 218.00 31.00
M 143.00 113.00 
C 144.62 110.69 158.17 111.32 160.00 113.00
C 160.83 113.76 159.37 117.02 160.00 118.00
C 164.47 113.65 169.20 109.58 176.00 111.00
C 176.00 117.00 176.00 123.00 176.00 129.00
C 151.89 127.82 163.77 158.98 161.00 174.00
C 155.00 174.00 149.00 174.00 143.00 174.00
C 143.00 153.67 143.00 133.33 143.00 113.00 Z"/>
</g>
<g fill="#93959A" fill-opacity="1.00" stroke="None">
<path d="
M 0.00 6.00 
C 0.50 6.00 1.00 6.00 1.00 6.00
C 6.67 6.00 12.33 6.00 18.00 6.00
C 18.50 6.00 19.00 6.00 19.00 6.00
C 15.28 2.13 4.95 6.82 0.00 5.00
L 0.00 6.00 Z"/>
</g>
<g fill="#8F9096" fill-opacity="1.00" stroke="None">
<path d="
M 143.00 6.00 
C 149.00 6.00 155.00 6.00 161.00 6.00
C 159.62 4.02 144.43 3.95 143.00 6.00 Z"/>
</g>
<g fill="#484B56" fill-opacity="1.00" stroke="None">
<path d="
M 0.00 19.00 
C 0.00 19.00 0.50 19.00 1.00 19.00
C 1.37 14.90 1.37 10.10 1.00 6.00
C 1.00 6.00 0.50 6.00 0.00 6.00
L 0.00 19.00 Z"/>
</g>
<g fill="#0D101B" fill-opacity="1.00" stroke="None">
<path d="
M 1.00 19.00 
C 4.42 19.00 15.33 20.87 18.00 19.00
C 18.29 14.69 17.61 10.30 18.00 6.00
C 12.33 6.00 6.67 6.00 1.00 6.00
C 1.37 10.10 1.37 14.90 1.00 19.00 Z"/>
</g>
<g fill="#45474E" fill-opacity="1.00" stroke="None">
<path d="
M 18.00 19.00 
C 20.17 17.48 19.25 8.72 19.00 6.00
C 19.00 6.00 18.50 6.00 18.00 6.00
C 17.61 10.30 18.29 14.69 18.00 19.00 Z"/>
</g>
<g fill="#0E111D" fill-opacity="1.00" stroke="None">
<path d="
M 161.00 6.00 
C 155.00 6.00 149.00 6.00 143.00 6.00
C 143.00 12.67 143.00 19.33 143.00 26.00
C 140.00 26.00 137.00 26.00 134.00 26.00
C 134.00 30.67 134.00 35.33 134.00 40.00
C 137.00 40.00 140.00 40.00 143.00 40.00
C 143.00 56.00 143.00 72.00 143.00 88.00
C 149.00 88.00 155.00 88.00 161.00 88.00
C 161.00 72.00 161.00 56.00 161.00 40.00
C 164.00 40.00 167.00 40.00 170.00 40.00
C 170.00 35.33 170.00 30.67 170.00 26.00
C 167.00 26.00 164.00 26.00 161.00 26.00
C 158.65 20.98 164.13 10.47 161.00 6.00 Z"/>
</g>
<g fill="#10141F" fill-opacity="1.00" stroke="None">
<path d="
M 80.00 88.00 
C 78.44 71.49 83.41 49.90 76.92 35.08 C 70.44 20.25 49.25 21.25 40.00 32.00
C 42.26 21.76 28.89 27.45 23.00 26.00
C 23.00 46.67 23.00 67.33 23.00 88.00
C 29.00 88.00 35.00 88.00 41.00 88.00
C 41.44 76.10 40.41 61.67 41.03 50.03 C 41.64 38.38 61.22 37.94 61.00 50.00 C 60.78 62.06 61.16 75.79 61.00 88.00
C 67.33 88.00 73.67 88.00 80.00 88.00 Z"/>
</g>
<g fill="#10131F" fill-opacity="1.00" stroke="None">
<path d="
M 101.00 70.00 
C 95.00 70.00 89.00 70.00 83.00 70.00
C 83.03 81.34 93.63 88.92 104.00 90.00 C 114.37 91.08 125.87 85.70 131.07 77.07 C 136.28 68.45 129.81 53.50 120.02 51.98 C 110.24 50.46 92.44 41.16 111.00 39.00
C 113.86 46.70 124.59 41.48 131.00 43.00
C 130.18 37.68 128.16 32.82 123.75 29.25 C 119.33 25.69 113.71 23.91 108.00 24.00 C 102.30 24.10 96.56 25.85 92.08 29.08 C 87.61 32.32 84.53 35.91 83.33 41.33 C 82.13 46.75 84.81 52.71 88.25 56.75 C 91.70 60.78 98.71 61.54 102.98 63.02 C 107.24 64.51 116.80 65.17 113.25 72.25 C 109.70 79.33 103.56 71.62 101.00 70.00 Z"/>
</g>
<g fill="#0F131F" fill-opacity="1.00" stroke="None">
<path d="
M 218.00 83.00 
C 218.66 82.54 218.77 80.83 220.00 81.00
C 220.00 83.33 220.00 85.67 220.00 88.00
C 225.67 88.00 231.33 88.00 237.00 88.00
C 237.00 67.33 237.00 46.67 237.00 26.00
C 232.59 27.94 223.99 23.41 220.00 26.00
C 219.59 29.11 221.18 31.90 218.00 31.00
C 213.57 29.74 208.44 21.87 202.00 24.00 C 195.56 26.13 189.19 24.25 184.23 28.23 C 179.27 32.21 176.12 34.01 173.31 39.31 C 170.50 44.60 169.06 51.06 169.00 57.00 C 168.94 62.94 170.81 70.25 173.75 75.25 C 176.68 80.25 179.83 82.93 184.92 86.08 C 190.02 89.22 196.63 89.44 202.99 89.99 C 209.35 90.54 213.38 86.17 218.00 83.00
M 206.00 41.00 
C 225.19 43.97 220.06 76.62 200.33 72.67 C 180.60 68.72 186.20 37.94 206.00 41.00 Z"/>
</g>
<g fill="#131723" fill-opacity="1.00" stroke="None">
<path d="
M 0.00 88.00 
C 6.33 88.00 12.67 88.00 19.00 88.00
C 19.00 67.33 19.00 46.67 19.00 26.00
C 12.67 26.00 6.33 26.00 0.00 26.00
L 0.00 88.00 Z"/>
</g>
<g fill="#70747B" fill-opacity="1.00" stroke="None">
<path d="
M 218.00 31.00 
C 221.18 31.90 219.59 29.11 220.00 26.00
C 218.07 27.25 219.93 29.84 218.00 31.00 Z"/>
</g>
<g fill="#F8F9F9" fill-opacity="1.00" stroke="None">
<path d="
M 206.00 41.00 
C 186.20 37.94 180.60 68.72 200.33 72.67 C 220.06 76.62 225.19 43.97 206.00 41.00 Z"/>
</g>
<g fill="#808288" fill-opacity="1.00" stroke="None">
<path d="
M 83.00 70.00 
C 89.00 70.00 95.00 70.00 101.00 70.00
C 98.81 68.61 84.75 67.36 83.00 70.00 Z"/>
</g>
<g fill="#696E77" fill-opacity="1.00" stroke="None">
<path d="
M 218.00 83.00 
C 217.98 83.34 219.42 87.62 220.00 88.00
C 220.00 85.67 220.00 83.33 220.00 81.00
C 218.77 80.83 218.66 82.54 218.00 83.00 Z"/>
</g>
<g fill="#494C58" fill-opacity="1.00" stroke="None">
<path d="
M 0.00 174.00 
C 0.50 174.00 1.00 174.00 1.00 174.00
C 2.21 160.58 1.00 146.48 1.00 133.00 C 1.00 119.52 2.21 105.42 1.00 92.00
C 1.00 92.00 0.50 92.00 0.00 92.00
L 0.00 174.00 Z"/>
</g>
<g fill="#0F121E" fill-opacity="1.00" stroke="None">
<path d="
M 1.00 174.00 
C 6.33 174.00 11.67 174.00 17.00 174.00
C 16.60 172.33 16.56 168.92 18.00 168.00
C 22.43 171.87 26.85 175.99 33.00 176.00
C 34.87 175.61 37.09 176.11 39.00 176.00
C 75.00 173.91 76.57 112.58 40.00 111.00
C 38.03 110.91 35.97 110.91 34.00 111.00
C 28.23 110.62 23.25 113.43 19.00 117.00
C 19.00 108.67 19.00 100.33 19.00 92.00
C 13.00 92.00 7.00 92.00 1.00 92.00
C 2.21 105.42 1.00 119.52 1.00 133.00 C 1.00 146.48 2.21 160.58 1.00 174.00
M 38.00 128.00 
C 56.90 132.40 47.03 165.84 28.33 158.67 C 9.63 151.50 18.77 123.53 38.00 128.00 Z"/>
</g>
<g fill="#7A7C81" fill-opacity="1.00" stroke="None">
<path d="
M 34.00 111.00 
C 35.97 110.91 38.03 110.91 40.00 111.00
C 37.88 110.70 36.17 110.69 34.00 111.00 Z"/>
</g>
<g fill="#686A70" fill-opacity="1.00" stroke="None">
<path d="
M 98.00 111.00 
C 100.92 110.84 104.08 110.80 107.00 111.00
C 103.87 110.44 101.17 110.48 98.00 111.00 Z"/>
</g>
<g fill="#0E121E" fill-opacity="1.00" stroke="None">
<path d="
M 98.00 176.00 
C 100.28 176.14 102.72 176.11 105.00 176.00
C 110.65 175.98 118.20 173.93 120.00 168.00
C 119.70 177.53 131.20 173.01 138.00 174.00
C 138.00 153.67 138.00 133.33 138.00 113.00
C 132.56 114.58 119.56 108.89 121.00 118.00
C 117.04 113.80 112.71 111.39 107.00 111.00
C 104.08 110.80 100.92 110.84 98.00 111.00
C 62.00 112.95 62.21 173.73 98.00 176.00
M 110.00 128.00 
C 128.84 132.67 118.60 165.82 99.78 158.22 C 80.96 150.63 89.86 123.01 110.00 128.00 Z"/>
</g>
<g fill="#0E121E" fill-opacity="1.00" stroke="None">
<path d="
M 160.00 113.00 
C 154.33 113.00 148.67 113.00 143.00 113.00
C 143.00 133.33 143.00 153.67 143.00 174.00
C 149.00 174.00 155.00 174.00 161.00 174.00
C 163.77 158.98 151.89 127.82 176.00 129.00
C 176.00 123.00 176.00 117.00 176.00 111.00
C 169.20 109.58 164.47 113.65 160.00 118.00
C 159.37 117.02 160.83 113.76 160.00 113.00 Z"/>
</g>
<g fill="#94979D" fill-opacity="1.00" stroke="None">
<path d="
M 143.00 113.00 
C 148.67 113.00 154.33 113.00 160.00 113.00
C 158.17 111.32 144.62 110.69 143.00 113.00 Z"/>
</g>
<g fill="#F9F9FA" fill-opacity="1.00" stroke="None">
<path d="
M 38.00 128.00 
C 18.77 123.53 9.63 151.50 28.33 158.67 C 47.03 165.84 56.90 132.40 38.00 128.00 Z"/>
</g>
<g fill="#F8F8F9" fill-opacity="1.00" stroke="None">
<path d="
M 110.00 128.00 
C 89.86 123.01 80.96 150.63 99.78 158.22 C 118.60 165.82 128.84 132.67 110.00 128.00 Z"/>
</g>
<g fill="#4B4D52" fill-opacity="1.00" stroke="None">
<path d="
M 17.00 174.00 
C 17.50 174.00 18.00 174.00 18.00 174.00
C 18.40 172.08 17.70 169.94 18.00 168.00
C 16.56 168.92 16.60 172.33 17.00 174.00 Z"/>
</g>
<g fill="#F6F6F8" fill-opacity="1.00" stroke="None">
<path d="
M 18.00 174.00 
C 14.42 177.72 4.71 173.29 0.00 175.00
L 0.00 177.00
L 33.00 177.00
C 33.00 176.50 33.00 176.00 33.00 176.00
C 26.85 175.99 22.43 171.87 18.00 168.00
C 17.70 169.94 18.40 172.08 18.00 174.00 Z"/>
</g>
<g fill="#B8B9BD" fill-opacity="1.00" stroke="None">
<path d="
M 0.00 175.00 
C 4.71 173.29 14.42 177.72 18.00 174.00
C 18.00 174.00 17.50 174.00 17.00 174.00
C 11.67 174.00 6.33 174.00 1.00 174.00
C 1.00 174.00 0.50 174.00 0.00 174.00
L 0.00 175.00 Z"/>
</g>
<g fill="#A3A5AB" fill-opacity="1.00" stroke="None">
<path d="
M 33.00 177.00 
L 39.00 177.00
C 39.00 177.00 38.94 176.01 39.00 176.00
C 37.09 176.11 34.87 175.61 33.00 176.00
C 33.00 176.00 33.00 176.50 33.00 177.00 Z"/>
</g>
<g fill="#AFB1B6" fill-opacity="1.00" stroke="None">
<path d="
M 98.00 177.00 
L 105.00 177.00
C 105.00 177.00 104.99 176.00 105.00 176.00
C 102.72 176.11 100.28 176.14 98.00 176.00
C 98.00 176.00 98.00 176.50 98.00 177.00 Z"/>
</g>
</svg>