<svg version="1.1" id="Layer_1" xmlns="http://www.w3.org/2000/svg" xmlns:xlink="http://www.w3.org/1999/xlink" x="0px" y="0px"
	 width="100%" viewBox="0 0 1024 1024" enable-background="new 0 0 1024 1024" xml:space="preserve">
<path fill="#000000" opacity="1.000000" stroke="none" 
	d="
M508.000000,654.208618 
	C474.670624,654.207581 441.841248,654.210205 409.011871,654.201111 
	C402.552277,654.199341 402.351776,654.139160 403.587799,647.850281 
	C408.878845,620.929993 414.293243,594.033936 419.672363,567.130981 
	C426.450897,533.229248 433.245728,499.330780 440.020020,465.428192 
	C443.637268,447.325348 447.319550,429.234528 450.760162,411.098053 
	C451.594299,406.700989 453.655975,404.959747 458.113708,405.009338 
	C471.943451,405.163177 485.776245,405.080872 499.607605,405.026489 
	C503.724213,405.010284 505.556244,405.942352 504.545502,410.900269 
	C495.810760,453.746124 487.330109,496.643860 478.819763,539.535278 
	C475.130127,558.130676 471.645355,576.767334 467.842590,595.339172 
	C466.994843,599.479431 468.184967,600.721680 472.224243,600.708069 
	C498.220795,600.620300 524.217957,600.625793 550.214478,600.721497 
	C553.360413,600.733093 555.015198,599.284424 556.511414,596.792053 
	C576.232788,563.942139 596.113525,531.187256 615.680359,498.245819 
	C618.569702,493.381592 621.688110,491.453918 627.470276,491.515808 
	C657.129944,491.833313 686.794922,491.659729 716.458008,491.664154 
	C723.403320,491.665192 723.520691,491.724396 724.050110,498.364227 
	C726.060425,523.576843 728.642456,548.737305 730.543091,573.963989 
	C732.428162,598.983521 735.243286,623.935852 737.886169,648.892700 
	C738.316711,652.958618 737.239014,654.326050 733.244934,654.293030 
	C718.747620,654.173096 704.246399,654.082764 689.751831,654.309448 
	C684.854675,654.386047 684.366455,651.351501 684.063171,647.924072 
	C682.566040,631.005859 681.178040,614.078064 679.681763,597.159851 
	C678.364319,582.262695 676.942627,567.374878 675.596191,552.480286 
	C675.324951,549.479431 673.851807,548.001770 670.765076,548.025269 
	C665.100098,548.068298 659.430969,548.108643 653.769897,547.939331 
	C649.946411,547.824890 648.707581,550.593872 647.246216,553.198792 
	C634.858093,575.280762 622.478760,597.367676 610.108276,619.459595 
	C604.573914,629.343018 598.943970,639.176025 593.610168,649.166870 
	C591.655945,652.827515 589.277283,654.367004 584.988464,654.333374 
	C559.493530,654.133728 533.996399,654.218811 508.000000,654.208618 
z"/>
<path fill="#000000" opacity="1.000000" stroke="none" 
	d="
M171.085358,648.960938 
	C180.569366,606.030151 189.942551,563.483765 199.317810,520.937927 
	C201.069931,512.986755 203.184326,505.093262 204.450516,497.065735 
	C205.174561,492.475342 207.247238,491.580536 211.411362,491.591003 
	C256.571411,491.704681 301.731873,491.655212 346.892212,491.648773 
	C354.777405,491.647644 354.777405,491.644562 354.794403,483.680054 
	C354.823639,469.969849 354.823639,470.003387 341.179291,470.003754 
	C299.851807,470.004883 258.524323,469.982178 217.196838,469.956512 
	C210.908859,469.952606 210.415176,469.480865 211.722717,463.470947 
	C215.644531,445.444855 219.753174,427.459320 223.633316,409.424438 
	C224.333267,406.171143 225.973114,405.040894 229.130753,405.044403 
	C271.124573,405.091217 313.120422,404.853088 355.111267,405.212585 
	C369.229584,405.333435 379.979309,413.088226 388.516754,423.804535 
	C409.329620,449.929047 415.943512,488.116211 393.850189,518.887085 
	C385.027252,531.175476 373.471832,540.298889 359.742004,546.666260 
	C356.945831,547.962952 354.025757,548.247253 350.983246,548.242249 
	C320.654236,548.192139 290.325104,548.194031 259.996033,548.181335 
	C252.101944,548.177979 252.203690,548.202759 250.300964,556.081543 
	C242.805710,587.117554 235.172287,618.120544 227.788803,649.182983 
	C226.868317,653.055542 225.100708,654.310486 221.305099,654.274109 
	C205.975235,654.127258 190.643036,654.146240 175.312302,654.223450 
	C171.760864,654.241272 169.714935,653.383484 171.085358,648.960938 
z"/>
<path fill="#000000" opacity="1.000000" stroke="none" 
	d="
M808.028564,427.045227 
	C819.257324,455.196716 830.339783,482.993347 841.494202,510.970367 
	C844.624817,509.697113 845.710693,507.159912 847.149841,505.047028 
	C868.619202,473.526459 890.113586,442.022339 911.395874,410.375702 
	C913.942505,406.588867 916.813171,404.975067 921.209534,405.029510 
	C931.203918,405.153229 941.203308,405.180969 951.195862,404.992767 
	C955.789246,404.906219 957.165405,406.792328 957.199829,411.261810 
	C957.241333,416.660156 955.895752,421.207703 952.903381,425.740570 
	C925.745178,466.880157 898.837158,508.185059 871.612000,549.279968 
	C867.867310,554.932495 867.547302,561.173645 866.505249,567.285889 
	C863.405273,585.468811 860.714783,603.722107 857.935730,621.958862 
	C856.558167,630.998535 855.238525,640.049622 854.094482,649.121033 
	C853.639160,652.731201 852.190063,654.320312 848.343140,654.289124 
	C830.851257,654.147522 813.356750,654.137329 795.865173,654.300171 
	C791.422363,654.341553 790.544983,652.717041 791.226379,648.578125 
	C795.410400,623.163452 799.393005,597.715637 803.436584,572.277893 
	C804.166260,567.687744 804.965149,563.105469 805.549988,558.496460 
	C805.970581,555.181824 805.607117,552.029358 804.273804,548.767639 
	C785.441956,502.701111 766.753113,456.576111 748.044128,410.459381 
	C747.551575,409.245148 747.222961,407.964386 746.851501,406.818359 
	C748.197021,404.727448 750.177429,405.095886 751.917664,405.088715 
	C766.078491,405.030212 780.240112,405.109253 794.400085,404.980621 
	C797.877319,404.949066 799.992188,406.121124 801.197571,409.479797 
	C803.275818,415.270508 805.638733,420.959015 808.028564,427.045227 
z"/>
<path fill="#000000" opacity="1.000000" stroke="none" 
	d="
M117.452347,427.578796 
	C118.723129,421.461029 120.017159,415.780151 121.009789,410.047089 
	C121.628815,406.471832 123.378105,404.998505 127.047028,405.022491 
	C142.700745,405.124939 158.355972,405.108551 174.009811,405.007568 
	C178.673447,404.977509 179.589920,406.909332 178.634613,411.240082 
	C172.942810,437.042664 167.441589,462.887329 161.892960,488.721405 
	C150.796555,540.385437 139.623932,592.033386 128.684250,643.730591 
	C126.076424,656.054321 127.115707,654.061096 115.720512,654.160889 
	C102.065475,654.280396 88.408493,654.210205 74.752495,654.172546 
	C69.393684,654.157776 69.089012,653.618835 70.219040,648.334717 
	C79.184509,606.411560 88.085571,564.474548 97.072823,522.556091 
	C103.378265,493.146149 109.791489,463.759277 116.143631,434.359314 
	C116.599548,432.249207 116.949158,430.116089 117.452347,427.578796 
z"/>
<path fill="#000000" opacity="1.000000" stroke="none" 
	d="
M692.114624,469.936829 
	C672.774902,468.710022 653.853699,469.966003 635.194946,469.099854 
	C634.427673,466.746552 635.560730,465.587708 636.310669,464.342957 
	C647.309143,446.087921 658.398804,427.887115 669.266052,409.554443 
	C671.213257,406.269562 673.468567,404.927246 677.259949,404.991394 
	C687.916626,405.171692 698.582703,405.197723 709.236816,404.941803 
	C713.600281,404.836975 715.497986,406.254181 715.846252,410.725067 
	C716.826477,423.309906 718.137878,435.869019 719.326050,448.437531 
	C719.841919,453.894653 720.134338,459.388062 720.983826,464.793396 
	C721.588867,468.643311 720.264282,470.016235 716.583923,469.981323 
	C708.589539,469.905426 700.594177,469.944977 692.114624,469.936829 
z"/>
</svg>