<?xml version="1.0" standalone="no"?>
<!DOCTYPE svg PUBLIC "-//W3C//DTD SVG 20010904//EN"
 "http://www.w3.org/TR/2001/REC-SVG-20010904/DTD/svg10.dtd">
<svg version="1.0" xmlns="http://www.w3.org/2000/svg"
 width="225.000000pt" height="225.000000pt" viewBox="0 0 225.000000 225.000000"
 preserveAspectRatio="xMidYMid meet">

<g transform="translate(0.000000,225.000000) scale(0.100000,-0.100000)"
fill="#000000" stroke="none">
<path d="M0 1125 l0 -1125 1125 0 1125 0 0 1125 0 1125 -1125 0 -1125 0 0
-1125z m1335 750 c33 -9 102 -37 154 -62 79 -37 108 -59 181 -131 94 -94 145
-173 184 -290 172 -505 -167 -1018 -694 -1049 -291 -17 -570 127 -713 368
-118 201 -140 484 -54 699 42 103 88 171 177 260 116 116 232 181 384 216 80
18 298 12 381 -11z"/>
<path d="M627 1314 c-41 -41 -61 -115 -60 -224 1 -227 106 -437 250 -503 63
-28 162 -30 218 -3 22 11 84 64 137 119 l98 99 66 -61 c82 -75 118 -85 181
-51 110 58 233 285 233 427 0 55 -4 68 -25 88 -51 52 -133 20 -224 -87 -25
-30 -86 -109 -136 -176 -49 -68 -94 -121 -100 -120 -6 2 -46 44 -89 93 -122
140 -346 364 -395 396 -60 39 -118 40 -154 3z"/>
</g>
</svg>
